<mxfile host="app.diagrams.net" modified="2023-04-25T13:01:10.511Z" agent="Mozilla/5.0 (Windows NT 10.0; Win64; x64) AppleWebKit/537.36 (KHTML, like Gecko) Chrome/111.0.0.0 Safari/537.36 OPR/97.0.0.0" etag="jxD4eduC00h_qNccthYK" version="21.2.1" type="device">
  <diagram name="Page-1" id="phJQ7haZQrB6JCZLSTfM">
    <mxGraphModel dx="1500" dy="786" grid="1" gridSize="10" guides="1" tooltips="1" connect="1" arrows="1" fold="1" page="1" pageScale="1" pageWidth="1700" pageHeight="1100" math="0" shadow="0">
      <root>
        <mxCell id="0" />
        <mxCell id="1" parent="0" />
        <mxCell id="fh_c4aW1x9fe1zc0Bb2D-233" style="edgeStyle=orthogonalEdgeStyle;rounded=0;orthogonalLoop=1;jettySize=auto;html=1;exitX=1;exitY=0.5;exitDx=0;exitDy=0;entryX=0;entryY=0.5;entryDx=0;entryDy=0;shape=link;" parent="1" source="fh_c4aW1x9fe1zc0Bb2D-119" target="fh_c4aW1x9fe1zc0Bb2D-130" edge="1">
          <mxGeometry relative="1" as="geometry" />
        </mxCell>
        <mxCell id="fh_c4aW1x9fe1zc0Bb2D-335" value="N" style="edgeLabel;html=1;align=center;verticalAlign=middle;resizable=0;points=[];" parent="fh_c4aW1x9fe1zc0Bb2D-233" vertex="1" connectable="0">
          <mxGeometry x="0.7199" relative="1" as="geometry">
            <mxPoint x="22" y="-12" as="offset" />
          </mxGeometry>
        </mxCell>
        <mxCell id="fh_c4aW1x9fe1zc0Bb2D-119" value="Teacher" style="rounded=0;whiteSpace=wrap;html=1;fillColor=#f8cecc;strokeColor=#b85450;" parent="1" vertex="1">
          <mxGeometry x="760" y="147.5" width="120" height="60" as="geometry" />
        </mxCell>
        <mxCell id="fh_c4aW1x9fe1zc0Bb2D-148" style="edgeStyle=orthogonalEdgeStyle;rounded=0;orthogonalLoop=1;jettySize=auto;html=1;exitX=1;exitY=0.5;exitDx=0;exitDy=0;entryX=0;entryY=0.5;entryDx=0;entryDy=0;shape=link;" parent="1" source="fh_c4aW1x9fe1zc0Bb2D-120" target="fh_c4aW1x9fe1zc0Bb2D-147" edge="1">
          <mxGeometry relative="1" as="geometry" />
        </mxCell>
        <mxCell id="fh_c4aW1x9fe1zc0Bb2D-349" value="1" style="edgeLabel;html=1;align=center;verticalAlign=middle;resizable=0;points=[];" parent="fh_c4aW1x9fe1zc0Bb2D-148" vertex="1" connectable="0">
          <mxGeometry x="0.9129" relative="1" as="geometry">
            <mxPoint x="18" y="-12" as="offset" />
          </mxGeometry>
        </mxCell>
        <mxCell id="fh_c4aW1x9fe1zc0Bb2D-157" style="edgeStyle=orthogonalEdgeStyle;rounded=0;orthogonalLoop=1;jettySize=auto;html=1;exitX=0;exitY=0.25;exitDx=0;exitDy=0;entryX=0.5;entryY=1;entryDx=0;entryDy=0;shape=link;" parent="1" source="fh_c4aW1x9fe1zc0Bb2D-120" target="fh_c4aW1x9fe1zc0Bb2D-153" edge="1">
          <mxGeometry relative="1" as="geometry" />
        </mxCell>
        <mxCell id="fh_c4aW1x9fe1zc0Bb2D-357" value="1" style="edgeLabel;html=1;align=center;verticalAlign=middle;resizable=0;points=[];" parent="fh_c4aW1x9fe1zc0Bb2D-157" vertex="1" connectable="0">
          <mxGeometry x="0.0755" relative="1" as="geometry">
            <mxPoint x="-36" y="-14" as="offset" />
          </mxGeometry>
        </mxCell>
        <mxCell id="fh_c4aW1x9fe1zc0Bb2D-120" value="Principal" style="rounded=0;whiteSpace=wrap;html=1;fillColor=#dae8fc;strokeColor=#6c8ebf;" parent="1" vertex="1">
          <mxGeometry x="761" y="662" width="120" height="60" as="geometry" />
        </mxCell>
        <mxCell id="fh_c4aW1x9fe1zc0Bb2D-158" style="edgeStyle=orthogonalEdgeStyle;rounded=0;orthogonalLoop=1;jettySize=auto;html=1;exitX=0;exitY=0.5;exitDx=0;exitDy=0;entryX=0.5;entryY=0;entryDx=0;entryDy=0;shape=link;" parent="1" source="fh_c4aW1x9fe1zc0Bb2D-121" target="fh_c4aW1x9fe1zc0Bb2D-150" edge="1">
          <mxGeometry relative="1" as="geometry" />
        </mxCell>
        <mxCell id="fh_c4aW1x9fe1zc0Bb2D-354" value="N" style="edgeLabel;html=1;align=center;verticalAlign=middle;resizable=0;points=[];" parent="fh_c4aW1x9fe1zc0Bb2D-158" vertex="1" connectable="0">
          <mxGeometry x="0.6513" y="-1" relative="1" as="geometry">
            <mxPoint x="-28" y="5" as="offset" />
          </mxGeometry>
        </mxCell>
        <mxCell id="fh_c4aW1x9fe1zc0Bb2D-121" value="Class" style="rounded=0;whiteSpace=wrap;html=1;fillColor=#f8cecc;strokeColor=#b85450;" parent="1" vertex="1">
          <mxGeometry x="990" y="517" width="120" height="60" as="geometry" />
        </mxCell>
        <mxCell id="fh_c4aW1x9fe1zc0Bb2D-122" value="Score Sheet" style="rounded=0;whiteSpace=wrap;html=1;fillColor=#f8cecc;strokeColor=#b85450;" parent="1" vertex="1">
          <mxGeometry x="700.47" y="410" width="120" height="60" as="geometry" />
        </mxCell>
        <mxCell id="fh_c4aW1x9fe1zc0Bb2D-123" value="School_Staff" style="rounded=0;whiteSpace=wrap;html=1;fillColor=#f8cecc;strokeColor=#b85450;" parent="1" vertex="1">
          <mxGeometry x="309" y="217.5" width="120" height="60" as="geometry" />
        </mxCell>
        <mxCell id="fh_c4aW1x9fe1zc0Bb2D-142" style="rounded=0;orthogonalLoop=1;jettySize=auto;html=1;exitX=0;exitY=0.5;exitDx=0;exitDy=0;entryX=1;entryY=0.5;entryDx=0;entryDy=0;shape=link;" parent="1" source="fh_c4aW1x9fe1zc0Bb2D-124" target="fh_c4aW1x9fe1zc0Bb2D-141" edge="1">
          <mxGeometry relative="1" as="geometry">
            <mxPoint x="1360.77" y="422.99999999999983" as="targetPoint" />
          </mxGeometry>
        </mxCell>
        <mxCell id="fh_c4aW1x9fe1zc0Bb2D-353" value="N" style="edgeLabel;html=1;align=center;verticalAlign=middle;resizable=0;points=[];" parent="fh_c4aW1x9fe1zc0Bb2D-142" vertex="1" connectable="0">
          <mxGeometry x="-0.4438" y="-4" relative="1" as="geometry">
            <mxPoint x="-44" y="-9" as="offset" />
          </mxGeometry>
        </mxCell>
        <mxCell id="fh_c4aW1x9fe1zc0Bb2D-124" value="Schedule" style="rounded=0;whiteSpace=wrap;html=1;fillColor=#f8cecc;strokeColor=#b85450;" parent="1" vertex="1">
          <mxGeometry x="1391.77" y="393.49999999999994" width="120" height="60" as="geometry" />
        </mxCell>
        <mxCell id="fh_c4aW1x9fe1zc0Bb2D-125" value="Subject" style="rounded=0;whiteSpace=wrap;html=1;fillColor=#f8cecc;strokeColor=#b85450;" parent="1" vertex="1">
          <mxGeometry x="1391.77" y="147.5" width="120" height="60" as="geometry" />
        </mxCell>
        <mxCell id="fh_c4aW1x9fe1zc0Bb2D-167" style="edgeStyle=orthogonalEdgeStyle;rounded=0;orthogonalLoop=1;jettySize=auto;html=1;exitX=1;exitY=0.5;exitDx=0;exitDy=0;entryX=0;entryY=0.5;entryDx=0;entryDy=0;shape=link;" parent="1" source="fh_c4aW1x9fe1zc0Bb2D-126" target="fh_c4aW1x9fe1zc0Bb2D-166" edge="1">
          <mxGeometry relative="1" as="geometry" />
        </mxCell>
        <mxCell id="fh_c4aW1x9fe1zc0Bb2D-343" value="N" style="edgeLabel;html=1;align=center;verticalAlign=middle;resizable=0;points=[];" parent="fh_c4aW1x9fe1zc0Bb2D-167" vertex="1" connectable="0">
          <mxGeometry x="0.7231" y="-2" relative="1" as="geometry">
            <mxPoint x="45" y="-14" as="offset" />
          </mxGeometry>
        </mxCell>
        <mxCell id="fh_c4aW1x9fe1zc0Bb2D-126" value="Attendance" style="rounded=0;whiteSpace=wrap;html=1;fillColor=#dae8fc;strokeColor=#6c8ebf;" parent="1" vertex="1">
          <mxGeometry x="1110" y="60" width="120" height="60" as="geometry" />
        </mxCell>
        <mxCell id="fh_c4aW1x9fe1zc0Bb2D-215" style="edgeStyle=orthogonalEdgeStyle;rounded=0;orthogonalLoop=1;jettySize=auto;html=1;exitX=1;exitY=0.5;exitDx=0;exitDy=0;entryX=0.5;entryY=0;entryDx=0;entryDy=0;shape=link;" parent="1" source="fh_c4aW1x9fe1zc0Bb2D-127" target="fh_c4aW1x9fe1zc0Bb2D-191" edge="1">
          <mxGeometry relative="1" as="geometry" />
        </mxCell>
        <mxCell id="fh_c4aW1x9fe1zc0Bb2D-368" value="N" style="edgeLabel;html=1;align=center;verticalAlign=middle;resizable=0;points=[];" parent="fh_c4aW1x9fe1zc0Bb2D-215" vertex="1" connectable="0">
          <mxGeometry x="0.7498" y="2" relative="1" as="geometry">
            <mxPoint x="7" y="7" as="offset" />
          </mxGeometry>
        </mxCell>
        <mxCell id="fh_c4aW1x9fe1zc0Bb2D-216" style="rounded=0;orthogonalLoop=1;jettySize=auto;html=1;exitX=0.5;exitY=1;exitDx=0;exitDy=0;entryX=0.5;entryY=0;entryDx=0;entryDy=0;shape=link;" parent="1" source="fh_c4aW1x9fe1zc0Bb2D-127" target="fh_c4aW1x9fe1zc0Bb2D-194" edge="1">
          <mxGeometry relative="1" as="geometry" />
        </mxCell>
        <mxCell id="fh_c4aW1x9fe1zc0Bb2D-366" value="N" style="edgeLabel;html=1;align=center;verticalAlign=middle;resizable=0;points=[];" parent="fh_c4aW1x9fe1zc0Bb2D-216" vertex="1" connectable="0">
          <mxGeometry x="0.4816" y="3" relative="1" as="geometry">
            <mxPoint x="5" as="offset" />
          </mxGeometry>
        </mxCell>
        <mxCell id="fh_c4aW1x9fe1zc0Bb2D-127" value="Announcement" style="rounded=0;whiteSpace=wrap;html=1;fillColor=#dae8fc;strokeColor=#6c8ebf;" parent="1" vertex="1">
          <mxGeometry x="310" y="708" width="120" height="60" as="geometry" />
        </mxCell>
        <mxCell id="fh_c4aW1x9fe1zc0Bb2D-161" style="edgeStyle=orthogonalEdgeStyle;rounded=0;orthogonalLoop=1;jettySize=auto;html=1;exitX=0.75;exitY=0;exitDx=0;exitDy=0;entryX=0.5;entryY=1;entryDx=0;entryDy=0;shape=link;" parent="1" source="fh_c4aW1x9fe1zc0Bb2D-128" target="fh_c4aW1x9fe1zc0Bb2D-160" edge="1">
          <mxGeometry relative="1" as="geometry" />
        </mxCell>
        <mxCell id="fh_c4aW1x9fe1zc0Bb2D-351" value="N" style="edgeLabel;html=1;align=center;verticalAlign=middle;resizable=0;points=[];" parent="fh_c4aW1x9fe1zc0Bb2D-161" vertex="1" connectable="0">
          <mxGeometry x="0.7679" y="-2" relative="1" as="geometry">
            <mxPoint x="7" y="-20" as="offset" />
          </mxGeometry>
        </mxCell>
        <mxCell id="fh_c4aW1x9fe1zc0Bb2D-173" style="edgeStyle=orthogonalEdgeStyle;rounded=0;orthogonalLoop=1;jettySize=auto;html=1;exitX=0.25;exitY=0;exitDx=0;exitDy=0;entryX=1;entryY=0.5;entryDx=0;entryDy=0;shape=link;" parent="1" source="fh_c4aW1x9fe1zc0Bb2D-128" target="fh_c4aW1x9fe1zc0Bb2D-172" edge="1">
          <mxGeometry relative="1" as="geometry" />
        </mxCell>
        <mxCell id="fh_c4aW1x9fe1zc0Bb2D-358" value="1" style="edgeLabel;html=1;align=center;verticalAlign=middle;resizable=0;points=[];" parent="fh_c4aW1x9fe1zc0Bb2D-173" vertex="1" connectable="0">
          <mxGeometry x="0.9598" relative="1" as="geometry">
            <mxPoint x="-7" y="-12" as="offset" />
          </mxGeometry>
        </mxCell>
        <mxCell id="fh_c4aW1x9fe1zc0Bb2D-128" value="Student" style="rounded=0;whiteSpace=wrap;html=1;fillColor=#f8cecc;strokeColor=#b85450;" parent="1" vertex="1">
          <mxGeometry x="1145" y="781" width="120" height="60" as="geometry" />
        </mxCell>
        <mxCell id="fh_c4aW1x9fe1zc0Bb2D-268" style="rounded=0;orthogonalLoop=1;jettySize=auto;html=1;exitX=0.5;exitY=0;exitDx=0;exitDy=0;entryX=0.5;entryY=1;entryDx=0;entryDy=0;shape=link;" parent="1" source="fh_c4aW1x9fe1zc0Bb2D-129" target="fh_c4aW1x9fe1zc0Bb2D-197" edge="1">
          <mxGeometry relative="1" as="geometry" />
        </mxCell>
        <mxCell id="fh_c4aW1x9fe1zc0Bb2D-371" value="1" style="edgeLabel;html=1;align=center;verticalAlign=middle;resizable=0;points=[];" parent="fh_c4aW1x9fe1zc0Bb2D-268" vertex="1" connectable="0">
          <mxGeometry x="0.216" y="-3" relative="1" as="geometry">
            <mxPoint x="5" y="-10" as="offset" />
          </mxGeometry>
        </mxCell>
        <mxCell id="fh_c4aW1x9fe1zc0Bb2D-129" value="Parent" style="rounded=0;whiteSpace=wrap;html=1;fillColor=#f8cecc;strokeColor=#b85450;" parent="1" vertex="1">
          <mxGeometry x="590" y="970" width="120" height="60" as="geometry" />
        </mxCell>
        <mxCell id="fh_c4aW1x9fe1zc0Bb2D-234" style="edgeStyle=orthogonalEdgeStyle;rounded=0;orthogonalLoop=1;jettySize=auto;html=1;exitX=1;exitY=0.5;exitDx=0;exitDy=0;entryX=0;entryY=0.5;entryDx=0;entryDy=0;shape=link;" parent="1" source="fh_c4aW1x9fe1zc0Bb2D-130" target="fh_c4aW1x9fe1zc0Bb2D-125" edge="1">
          <mxGeometry relative="1" as="geometry">
            <mxPoint x="1195" y="197.5" as="sourcePoint" />
          </mxGeometry>
        </mxCell>
        <mxCell id="fh_c4aW1x9fe1zc0Bb2D-336" value="N" style="edgeLabel;html=1;align=center;verticalAlign=middle;resizable=0;points=[];" parent="fh_c4aW1x9fe1zc0Bb2D-234" vertex="1" connectable="0">
          <mxGeometry x="-0.8041" y="1" relative="1" as="geometry">
            <mxPoint x="-20" y="-11" as="offset" />
          </mxGeometry>
        </mxCell>
        <mxCell id="fh_c4aW1x9fe1zc0Bb2D-130" value="Teaches" style="rhombus;whiteSpace=wrap;html=1;fillColor=#d5e8d4;strokeColor=#82b366;" parent="1" vertex="1">
          <mxGeometry x="1070" y="137.5" width="80" height="80" as="geometry" />
        </mxCell>
        <mxCell id="fh_c4aW1x9fe1zc0Bb2D-135" style="edgeStyle=orthogonalEdgeStyle;rounded=0;orthogonalLoop=1;jettySize=auto;html=1;exitX=0.5;exitY=1;exitDx=0;exitDy=0;entryX=0.5;entryY=0;entryDx=0;entryDy=0;shape=link;" parent="1" source="fh_c4aW1x9fe1zc0Bb2D-133" target="fh_c4aW1x9fe1zc0Bb2D-124" edge="1">
          <mxGeometry relative="1" as="geometry" />
        </mxCell>
        <mxCell id="fh_c4aW1x9fe1zc0Bb2D-347" value="N" style="edgeLabel;html=1;align=center;verticalAlign=middle;resizable=0;points=[];" parent="fh_c4aW1x9fe1zc0Bb2D-135" vertex="1" connectable="0">
          <mxGeometry x="-0.7219" y="-1" relative="1" as="geometry">
            <mxPoint x="9" y="-3" as="offset" />
          </mxGeometry>
        </mxCell>
        <mxCell id="fh_c4aW1x9fe1zc0Bb2D-133" value="Organizes" style="rhombus;whiteSpace=wrap;html=1;fillColor=#d5e8d4;strokeColor=#82b366;" parent="1" vertex="1">
          <mxGeometry x="1411.77" y="255.49999999999994" width="80" height="80" as="geometry" />
        </mxCell>
        <mxCell id="6AYaxFPfaX3n9xTRVo3Z-24" style="edgeStyle=orthogonalEdgeStyle;rounded=0;orthogonalLoop=1;jettySize=auto;html=1;exitX=0;exitY=0.5;exitDx=0;exitDy=0;entryX=0.75;entryY=0;entryDx=0;entryDy=0;shape=link;" parent="1" source="fh_c4aW1x9fe1zc0Bb2D-141" target="fh_c4aW1x9fe1zc0Bb2D-121" edge="1">
          <mxGeometry relative="1" as="geometry">
            <Array as="points">
              <mxPoint x="1080" y="423" />
            </Array>
          </mxGeometry>
        </mxCell>
        <mxCell id="6AYaxFPfaX3n9xTRVo3Z-25" value="1" style="edgeLabel;html=1;align=center;verticalAlign=middle;resizable=0;points=[];" parent="6AYaxFPfaX3n9xTRVo3Z-24" vertex="1" connectable="0">
          <mxGeometry x="0.0415" relative="1" as="geometry">
            <mxPoint x="129" y="-14" as="offset" />
          </mxGeometry>
        </mxCell>
        <mxCell id="fh_c4aW1x9fe1zc0Bb2D-141" value="Has" style="rhombus;whiteSpace=wrap;html=1;fillColor=#d5e8d4;strokeColor=#82b366;" parent="1" vertex="1">
          <mxGeometry x="1245" y="383.49999999999994" width="80" height="80" as="geometry" />
        </mxCell>
        <mxCell id="fh_c4aW1x9fe1zc0Bb2D-181" style="rounded=0;orthogonalLoop=1;jettySize=auto;html=1;exitX=0.5;exitY=1;exitDx=0;exitDy=0;entryX=0.5;entryY=0;entryDx=0;entryDy=0;shape=link;" parent="1" source="fh_c4aW1x9fe1zc0Bb2D-144" target="fh_c4aW1x9fe1zc0Bb2D-122" edge="1">
          <mxGeometry relative="1" as="geometry" />
        </mxCell>
        <mxCell id="fh_c4aW1x9fe1zc0Bb2D-340" value="N" style="edgeLabel;html=1;align=center;verticalAlign=middle;resizable=0;points=[];" parent="fh_c4aW1x9fe1zc0Bb2D-181" vertex="1" connectable="0">
          <mxGeometry x="-0.6314" y="-2" relative="1" as="geometry">
            <mxPoint x="11" y="-7" as="offset" />
          </mxGeometry>
        </mxCell>
        <mxCell id="fh_c4aW1x9fe1zc0Bb2D-144" value="Belong" style="rhombus;whiteSpace=wrap;html=1;fillColor=#d5e8d4;strokeColor=#82b366;" parent="1" vertex="1">
          <mxGeometry x="720.47" y="290" width="80" height="80" as="geometry" />
        </mxCell>
        <mxCell id="fh_c4aW1x9fe1zc0Bb2D-149" style="edgeStyle=orthogonalEdgeStyle;rounded=0;orthogonalLoop=1;jettySize=auto;html=1;exitX=0.5;exitY=0;exitDx=0;exitDy=0;entryX=0.5;entryY=1;entryDx=0;entryDy=0;shape=link;" parent="1" source="fh_c4aW1x9fe1zc0Bb2D-147" target="fh_c4aW1x9fe1zc0Bb2D-124" edge="1">
          <mxGeometry relative="1" as="geometry" />
        </mxCell>
        <mxCell id="fh_c4aW1x9fe1zc0Bb2D-348" value="N" style="edgeLabel;html=1;align=center;verticalAlign=middle;resizable=0;points=[];" parent="fh_c4aW1x9fe1zc0Bb2D-149" vertex="1" connectable="0">
          <mxGeometry x="-0.8453" y="-2" relative="1" as="geometry">
            <mxPoint x="7" y="9" as="offset" />
          </mxGeometry>
        </mxCell>
        <mxCell id="fh_c4aW1x9fe1zc0Bb2D-147" value="Modify" style="rhombus;whiteSpace=wrap;html=1;fillColor=#d5e8d4;strokeColor=#82b366;" parent="1" vertex="1">
          <mxGeometry x="1412.53" y="652" width="80" height="80" as="geometry" />
        </mxCell>
        <mxCell id="fh_c4aW1x9fe1zc0Bb2D-159" style="rounded=0;orthogonalLoop=1;jettySize=auto;html=1;exitX=0.5;exitY=1;exitDx=0;exitDy=0;entryX=0.25;entryY=0;entryDx=0;entryDy=0;shape=link;" parent="1" source="fh_c4aW1x9fe1zc0Bb2D-150" target="fh_c4aW1x9fe1zc0Bb2D-120" edge="1">
          <mxGeometry relative="1" as="geometry">
            <mxPoint x="820" y="770" as="targetPoint" />
          </mxGeometry>
        </mxCell>
        <mxCell id="fh_c4aW1x9fe1zc0Bb2D-355" value="1" style="edgeLabel;html=1;align=center;verticalAlign=middle;resizable=0;points=[];" parent="fh_c4aW1x9fe1zc0Bb2D-159" vertex="1" connectable="0">
          <mxGeometry x="0.4346" y="2" relative="1" as="geometry">
            <mxPoint x="-10" y="-8" as="offset" />
          </mxGeometry>
        </mxCell>
        <mxCell id="fh_c4aW1x9fe1zc0Bb2D-150" value="Modify" style="rhombus;whiteSpace=wrap;html=1;fillColor=#d5e8d4;strokeColor=#82b366;" parent="1" vertex="1">
          <mxGeometry x="751" y="567" width="80" height="80" as="geometry" />
        </mxCell>
        <mxCell id="fh_c4aW1x9fe1zc0Bb2D-156" style="edgeStyle=orthogonalEdgeStyle;rounded=0;orthogonalLoop=1;jettySize=auto;html=1;exitX=0.5;exitY=0;exitDx=0;exitDy=0;entryX=0;entryY=0.75;entryDx=0;entryDy=0;shape=link;" parent="1" source="fh_c4aW1x9fe1zc0Bb2D-153" target="fh_c4aW1x9fe1zc0Bb2D-122" edge="1">
          <mxGeometry relative="1" as="geometry" />
        </mxCell>
        <mxCell id="fh_c4aW1x9fe1zc0Bb2D-356" value="N" style="edgeLabel;html=1;align=center;verticalAlign=middle;resizable=0;points=[];" parent="fh_c4aW1x9fe1zc0Bb2D-156" vertex="1" connectable="0">
          <mxGeometry x="0.0017" relative="1" as="geometry">
            <mxPoint x="9" y="80" as="offset" />
          </mxGeometry>
        </mxCell>
        <mxCell id="fh_c4aW1x9fe1zc0Bb2D-153" value="Verify" style="rhombus;whiteSpace=wrap;html=1;fillColor=#d5e8d4;strokeColor=#82b366;" parent="1" vertex="1">
          <mxGeometry x="604.97" y="577" width="80" height="80" as="geometry" />
        </mxCell>
        <mxCell id="fh_c4aW1x9fe1zc0Bb2D-162" style="edgeStyle=orthogonalEdgeStyle;rounded=0;orthogonalLoop=1;jettySize=auto;html=1;exitX=0;exitY=0.5;exitDx=0;exitDy=0;entryX=1;entryY=0.5;entryDx=0;entryDy=0;shape=link;" parent="1" source="fh_c4aW1x9fe1zc0Bb2D-160" target="fh_c4aW1x9fe1zc0Bb2D-121" edge="1">
          <mxGeometry relative="1" as="geometry">
            <mxPoint x="1330.77" y="501" as="sourcePoint" />
          </mxGeometry>
        </mxCell>
        <mxCell id="fh_c4aW1x9fe1zc0Bb2D-350" value="1" style="edgeLabel;html=1;align=center;verticalAlign=middle;resizable=0;points=[];" parent="fh_c4aW1x9fe1zc0Bb2D-162" vertex="1" connectable="0">
          <mxGeometry x="-0.8769" relative="1" as="geometry">
            <mxPoint x="2" y="-14" as="offset" />
          </mxGeometry>
        </mxCell>
        <mxCell id="fh_c4aW1x9fe1zc0Bb2D-160" value="Enroll" style="rhombus;whiteSpace=wrap;html=1;fillColor=#d5e8d4;strokeColor=#82b366;" parent="1" vertex="1">
          <mxGeometry x="1195" y="507" width="80" height="80" as="geometry" />
        </mxCell>
        <mxCell id="fh_c4aW1x9fe1zc0Bb2D-165" style="edgeStyle=orthogonalEdgeStyle;rounded=0;orthogonalLoop=1;jettySize=auto;html=1;exitX=1;exitY=0.5;exitDx=0;exitDy=0;entryX=0;entryY=0.5;entryDx=0;entryDy=0;shape=link;" parent="1" source="fh_c4aW1x9fe1zc0Bb2D-163" target="fh_c4aW1x9fe1zc0Bb2D-126" edge="1">
          <mxGeometry relative="1" as="geometry" />
        </mxCell>
        <mxCell id="fh_c4aW1x9fe1zc0Bb2D-315" value="N" style="edgeLabel;html=1;align=center;verticalAlign=middle;resizable=0;points=[];" parent="fh_c4aW1x9fe1zc0Bb2D-165" vertex="1" connectable="0">
          <mxGeometry x="-0.4277" y="2" relative="1" as="geometry">
            <mxPoint x="-67" y="-10" as="offset" />
          </mxGeometry>
        </mxCell>
        <mxCell id="fh_c4aW1x9fe1zc0Bb2D-163" value="Modify" style="rhombus;whiteSpace=wrap;html=1;fillColor=#d5e8d4;strokeColor=#82b366;" parent="1" vertex="1">
          <mxGeometry x="780" y="50" width="80" height="80" as="geometry" />
        </mxCell>
        <mxCell id="fh_c4aW1x9fe1zc0Bb2D-168" style="edgeStyle=orthogonalEdgeStyle;rounded=0;orthogonalLoop=1;jettySize=auto;html=1;exitX=0.5;exitY=1;exitDx=0;exitDy=0;entryX=1;entryY=0.5;entryDx=0;entryDy=0;shape=link;" parent="1" source="fh_c4aW1x9fe1zc0Bb2D-166" target="fh_c4aW1x9fe1zc0Bb2D-128" edge="1">
          <mxGeometry relative="1" as="geometry" />
        </mxCell>
        <mxCell id="fh_c4aW1x9fe1zc0Bb2D-344" value="1" style="edgeLabel;html=1;align=center;verticalAlign=middle;resizable=0;points=[];" parent="fh_c4aW1x9fe1zc0Bb2D-168" vertex="1" connectable="0">
          <mxGeometry x="-0.9659" y="1" relative="1" as="geometry">
            <mxPoint x="7" y="-12" as="offset" />
          </mxGeometry>
        </mxCell>
        <mxCell id="fh_c4aW1x9fe1zc0Bb2D-166" value="Has" style="rhombus;whiteSpace=wrap;html=1;fillColor=#d5e8d4;strokeColor=#82b366;" parent="1" vertex="1">
          <mxGeometry x="1600" y="50" width="80" height="80" as="geometry" />
        </mxCell>
        <mxCell id="fh_c4aW1x9fe1zc0Bb2D-171" style="edgeStyle=orthogonalEdgeStyle;rounded=0;orthogonalLoop=1;jettySize=auto;html=1;exitX=0.5;exitY=1;exitDx=0;exitDy=0;entryX=0;entryY=0.25;entryDx=0;entryDy=0;shape=link;" parent="1" source="fh_c4aW1x9fe1zc0Bb2D-169" target="fh_c4aW1x9fe1zc0Bb2D-122" edge="1">
          <mxGeometry relative="1" as="geometry" />
        </mxCell>
        <mxCell id="fh_c4aW1x9fe1zc0Bb2D-330" value="N" style="edgeLabel;html=1;align=center;verticalAlign=middle;resizable=0;points=[];" parent="fh_c4aW1x9fe1zc0Bb2D-171" vertex="1" connectable="0">
          <mxGeometry x="-0.9254" y="3" relative="1" as="geometry">
            <mxPoint x="6" y="-5" as="offset" />
          </mxGeometry>
        </mxCell>
        <mxCell id="fh_c4aW1x9fe1zc0Bb2D-169" value="Modify" style="rhombus;whiteSpace=wrap;html=1;fillColor=#d5e8d4;strokeColor=#82b366;" parent="1" vertex="1">
          <mxGeometry x="560" y="227.5" width="80" height="80" as="geometry" />
        </mxCell>
        <mxCell id="fh_c4aW1x9fe1zc0Bb2D-174" style="edgeStyle=orthogonalEdgeStyle;rounded=0;orthogonalLoop=1;jettySize=auto;html=1;exitX=0.5;exitY=0;exitDx=0;exitDy=0;entryX=0;entryY=0.5;entryDx=0;entryDy=0;shape=link;" parent="1" source="fh_c4aW1x9fe1zc0Bb2D-172" target="fh_c4aW1x9fe1zc0Bb2D-122" edge="1">
          <mxGeometry relative="1" as="geometry" />
        </mxCell>
        <mxCell id="fh_c4aW1x9fe1zc0Bb2D-359" value="N" style="edgeLabel;html=1;align=center;verticalAlign=middle;resizable=0;points=[];" parent="fh_c4aW1x9fe1zc0Bb2D-174" vertex="1" connectable="0">
          <mxGeometry x="-0.9264" y="-2" relative="1" as="geometry">
            <mxPoint x="8" y="6" as="offset" />
          </mxGeometry>
        </mxCell>
        <mxCell id="fh_c4aW1x9fe1zc0Bb2D-172" value="Has" style="rhombus;whiteSpace=wrap;html=1;fillColor=#d5e8d4;strokeColor=#82b366;" parent="1" vertex="1">
          <mxGeometry x="560" y="721" width="80" height="80" as="geometry" />
        </mxCell>
        <mxCell id="fh_c4aW1x9fe1zc0Bb2D-177" style="edgeStyle=orthogonalEdgeStyle;rounded=0;orthogonalLoop=1;jettySize=auto;html=1;exitX=0.5;exitY=0;exitDx=0;exitDy=0;entryX=0;entryY=0.25;entryDx=0;entryDy=0;shape=link;width=-6.470588235294118;" parent="1" source="fh_c4aW1x9fe1zc0Bb2D-175" target="fh_c4aW1x9fe1zc0Bb2D-119" edge="1">
          <mxGeometry relative="1" as="geometry" />
        </mxCell>
        <mxCell id="fh_c4aW1x9fe1zc0Bb2D-333" value="1" style="edgeLabel;html=1;align=center;verticalAlign=middle;resizable=0;points=[];" parent="fh_c4aW1x9fe1zc0Bb2D-177" vertex="1" connectable="0">
          <mxGeometry x="-0.8474" y="-1" relative="1" as="geometry">
            <mxPoint x="-10" y="15" as="offset" />
          </mxGeometry>
        </mxCell>
        <mxCell id="fh_c4aW1x9fe1zc0Bb2D-178" style="edgeStyle=orthogonalEdgeStyle;rounded=0;orthogonalLoop=1;jettySize=auto;html=1;exitX=0.5;exitY=1;exitDx=0;exitDy=0;entryX=0;entryY=0.5;entryDx=0;entryDy=0;shape=link;" parent="1" source="fh_c4aW1x9fe1zc0Bb2D-175" target="fh_c4aW1x9fe1zc0Bb2D-120" edge="1">
          <mxGeometry relative="1" as="geometry" />
        </mxCell>
        <mxCell id="fh_c4aW1x9fe1zc0Bb2D-334" value="1" style="edgeLabel;html=1;align=center;verticalAlign=middle;resizable=0;points=[];" parent="fh_c4aW1x9fe1zc0Bb2D-178" vertex="1" connectable="0">
          <mxGeometry x="-0.9231" y="1" relative="1" as="geometry">
            <mxPoint x="-10" y="-22" as="offset" />
          </mxGeometry>
        </mxCell>
        <mxCell id="fh_c4aW1x9fe1zc0Bb2D-175" value="Is A" style="rhombus;whiteSpace=wrap;html=1;fillColor=#d5e8d4;strokeColor=#82b366;" parent="1" vertex="1">
          <mxGeometry x="470" y="207.5" width="80" height="80" as="geometry" />
        </mxCell>
        <mxCell id="fh_c4aW1x9fe1zc0Bb2D-185" style="edgeStyle=orthogonalEdgeStyle;rounded=0;orthogonalLoop=1;jettySize=auto;html=1;exitX=0.5;exitY=1;exitDx=0;exitDy=0;entryX=0.5;entryY=0;entryDx=0;entryDy=0;shape=link;" parent="1" source="fh_c4aW1x9fe1zc0Bb2D-183" target="fh_c4aW1x9fe1zc0Bb2D-121" edge="1">
          <mxGeometry relative="1" as="geometry" />
        </mxCell>
        <mxCell id="fh_c4aW1x9fe1zc0Bb2D-339" value="1" style="edgeLabel;html=1;align=center;verticalAlign=middle;resizable=0;points=[];" parent="fh_c4aW1x9fe1zc0Bb2D-185" vertex="1" connectable="0">
          <mxGeometry x="-0.7784" y="1" relative="1" as="geometry">
            <mxPoint x="8" y="-14" as="offset" />
          </mxGeometry>
        </mxCell>
        <mxCell id="fh_c4aW1x9fe1zc0Bb2D-183" value="Takes" style="rhombus;whiteSpace=wrap;html=1;fillColor=#d5e8d4;strokeColor=#82b366;" parent="1" vertex="1">
          <mxGeometry x="1010" y="227.5" width="80" height="80" as="geometry" />
        </mxCell>
        <mxCell id="fh_c4aW1x9fe1zc0Bb2D-190" style="edgeStyle=orthogonalEdgeStyle;rounded=0;orthogonalLoop=1;jettySize=auto;html=1;exitX=0.5;exitY=1;exitDx=0;exitDy=0;entryX=0.5;entryY=0;entryDx=0;entryDy=0;shape=link;" parent="1" source="fh_c4aW1x9fe1zc0Bb2D-188" target="fh_c4aW1x9fe1zc0Bb2D-127" edge="1">
          <mxGeometry relative="1" as="geometry" />
        </mxCell>
        <mxCell id="fh_c4aW1x9fe1zc0Bb2D-362" value="N" style="edgeLabel;html=1;align=center;verticalAlign=middle;resizable=0;points=[];" parent="fh_c4aW1x9fe1zc0Bb2D-190" vertex="1" connectable="0">
          <mxGeometry x="-0.6829" y="-2" relative="1" as="geometry">
            <mxPoint x="11" y="-22" as="offset" />
          </mxGeometry>
        </mxCell>
        <mxCell id="fh_c4aW1x9fe1zc0Bb2D-188" value="Sends" style="rhombus;whiteSpace=wrap;html=1;fillColor=#d5e8d4;strokeColor=#82b366;" parent="1" vertex="1">
          <mxGeometry x="330" y="400" width="80" height="80" as="geometry" />
        </mxCell>
        <mxCell id="fh_c4aW1x9fe1zc0Bb2D-191" value="Receives" style="rhombus;whiteSpace=wrap;html=1;fillColor=#d5e8d4;strokeColor=#82b366;" parent="1" vertex="1">
          <mxGeometry x="440" y="772" width="80" height="80" as="geometry" />
        </mxCell>
        <mxCell id="fh_c4aW1x9fe1zc0Bb2D-194" value="Receives" style="rhombus;whiteSpace=wrap;html=1;fillColor=#d5e8d4;strokeColor=#82b366;" parent="1" vertex="1">
          <mxGeometry x="330" y="798" width="80" height="80" as="geometry" />
        </mxCell>
        <mxCell id="fh_c4aW1x9fe1zc0Bb2D-269" style="edgeStyle=orthogonalEdgeStyle;rounded=0;orthogonalLoop=1;jettySize=auto;html=1;exitX=0.5;exitY=0;exitDx=0;exitDy=0;entryX=0;entryY=0.75;entryDx=0;entryDy=0;shape=link;" parent="1" source="fh_c4aW1x9fe1zc0Bb2D-197" target="fh_c4aW1x9fe1zc0Bb2D-128" edge="1">
          <mxGeometry relative="1" as="geometry" />
        </mxCell>
        <mxCell id="6AYaxFPfaX3n9xTRVo3Z-52" value="N" style="edgeLabel;html=1;align=center;verticalAlign=middle;resizable=0;points=[];" parent="fh_c4aW1x9fe1zc0Bb2D-269" vertex="1" connectable="0">
          <mxGeometry x="-0.7272" relative="1" as="geometry">
            <mxPoint x="-36" y="19" as="offset" />
          </mxGeometry>
        </mxCell>
        <mxCell id="fh_c4aW1x9fe1zc0Bb2D-197" value="Manages" style="rhombus;whiteSpace=wrap;html=1;fillColor=#d5e8d4;strokeColor=#82b366;" parent="1" vertex="1">
          <mxGeometry x="610" y="852" width="80" height="80" as="geometry" />
        </mxCell>
        <mxCell id="fh_c4aW1x9fe1zc0Bb2D-203" value="_id" style="ellipse;whiteSpace=wrap;html=1;fillColor=#dae8fc;strokeColor=#6c8ebf;" parent="1" vertex="1">
          <mxGeometry x="905" width="90" height="40" as="geometry" />
        </mxCell>
        <mxCell id="fh_c4aW1x9fe1zc0Bb2D-204" value="currentDate" style="ellipse;whiteSpace=wrap;html=1;fillColor=#dae8fc;strokeColor=#6c8ebf;" parent="1" vertex="1">
          <mxGeometry x="1015" width="90" height="40" as="geometry" />
        </mxCell>
        <mxCell id="fh_c4aW1x9fe1zc0Bb2D-205" value="isPresent" style="ellipse;whiteSpace=wrap;html=1;fillColor=#dae8fc;strokeColor=#6c8ebf;" parent="1" vertex="1">
          <mxGeometry x="1125" width="90" height="40" as="geometry" />
        </mxCell>
        <mxCell id="fh_c4aW1x9fe1zc0Bb2D-206" value="description" style="ellipse;whiteSpace=wrap;html=1;fillColor=#dae8fc;strokeColor=#6c8ebf;" parent="1" vertex="1">
          <mxGeometry x="1235" width="90" height="40" as="geometry" />
        </mxCell>
        <mxCell id="fh_c4aW1x9fe1zc0Bb2D-208" value="_id" style="ellipse;whiteSpace=wrap;html=1;fillColor=#dae8fc;strokeColor=#6c8ebf;" parent="1" vertex="1">
          <mxGeometry x="153" y="2" width="90" height="40" as="geometry" />
        </mxCell>
        <mxCell id="fh_c4aW1x9fe1zc0Bb2D-209" value="fullname" style="ellipse;whiteSpace=wrap;html=1;fillColor=#dae8fc;strokeColor=#6c8ebf;" parent="1" vertex="1">
          <mxGeometry x="153" y="52" width="90" height="40" as="geometry" />
        </mxCell>
        <mxCell id="fh_c4aW1x9fe1zc0Bb2D-210" value="email" style="ellipse;whiteSpace=wrap;html=1;fillColor=#dae8fc;strokeColor=#6c8ebf;" parent="1" vertex="1">
          <mxGeometry x="153" y="102" width="90" height="40" as="geometry" />
        </mxCell>
        <mxCell id="fh_c4aW1x9fe1zc0Bb2D-211" value="password" style="ellipse;whiteSpace=wrap;html=1;fillColor=#dae8fc;strokeColor=#6c8ebf;" parent="1" vertex="1">
          <mxGeometry x="153" y="152" width="90" height="40" as="geometry" />
        </mxCell>
        <mxCell id="fh_c4aW1x9fe1zc0Bb2D-212" value="gender" style="ellipse;whiteSpace=wrap;html=1;fillColor=#dae8fc;strokeColor=#6c8ebf;" parent="1" vertex="1">
          <mxGeometry x="153" y="297" width="90" height="40" as="geometry" />
        </mxCell>
        <mxCell id="fh_c4aW1x9fe1zc0Bb2D-213" value="position" style="ellipse;whiteSpace=wrap;html=1;fillColor=#dae8fc;strokeColor=#6c8ebf;" parent="1" vertex="1">
          <mxGeometry x="153" y="202" width="90" height="40" as="geometry" />
        </mxCell>
        <mxCell id="fh_c4aW1x9fe1zc0Bb2D-214" value="address" style="ellipse;whiteSpace=wrap;html=1;fillColor=#dae8fc;strokeColor=#6c8ebf;" parent="1" vertex="1">
          <mxGeometry x="153" y="252" width="90" height="40" as="geometry" />
        </mxCell>
        <mxCell id="fh_c4aW1x9fe1zc0Bb2D-224" value="_id" style="ellipse;whiteSpace=wrap;html=1;fillColor=#dae8fc;strokeColor=#6c8ebf;" parent="1" vertex="1">
          <mxGeometry x="153" y="494" width="90" height="40" as="geometry" />
        </mxCell>
        <mxCell id="fh_c4aW1x9fe1zc0Bb2D-225" value="title" style="ellipse;whiteSpace=wrap;html=1;fillColor=#dae8fc;strokeColor=#6c8ebf;" parent="1" vertex="1">
          <mxGeometry x="153" y="544" width="90" height="40" as="geometry" />
        </mxCell>
        <mxCell id="fh_c4aW1x9fe1zc0Bb2D-226" value="attachment" style="ellipse;whiteSpace=wrap;html=1;fillColor=#dae8fc;strokeColor=#6c8ebf;" parent="1" vertex="1">
          <mxGeometry x="153" y="594" width="90" height="40" as="geometry" />
        </mxCell>
        <mxCell id="fh_c4aW1x9fe1zc0Bb2D-227" value="body" style="ellipse;whiteSpace=wrap;html=1;fillColor=#dae8fc;strokeColor=#6c8ebf;" parent="1" vertex="1">
          <mxGeometry x="153" y="644" width="90" height="40" as="geometry" />
        </mxCell>
        <mxCell id="fh_c4aW1x9fe1zc0Bb2D-228" value="status" style="ellipse;whiteSpace=wrap;html=1;fillColor=#dae8fc;strokeColor=#6c8ebf;" parent="1" vertex="1">
          <mxGeometry x="153" y="694" width="90" height="40" as="geometry" />
        </mxCell>
        <mxCell id="fh_c4aW1x9fe1zc0Bb2D-229" value="_id" style="ellipse;whiteSpace=wrap;html=1;fillColor=#dae8fc;strokeColor=#6c8ebf;" parent="1" vertex="1">
          <mxGeometry x="640" y="345.5" width="90" height="40" as="geometry" />
        </mxCell>
        <mxCell id="fh_c4aW1x9fe1zc0Bb2D-230" value="semester" style="ellipse;whiteSpace=wrap;html=1;fillColor=#dae8fc;strokeColor=#6c8ebf;" parent="1" vertex="1">
          <mxGeometry x="790" y="345.5" width="90" height="40" as="geometry" />
        </mxCell>
        <mxCell id="fh_c4aW1x9fe1zc0Bb2D-231" value="score" style="ellipse;whiteSpace=wrap;html=1;fillColor=#dae8fc;strokeColor=#6c8ebf;" parent="1" vertex="1">
          <mxGeometry x="670" y="482" width="90" height="40" as="geometry" />
        </mxCell>
        <mxCell id="fh_c4aW1x9fe1zc0Bb2D-239" value="_id" style="ellipse;whiteSpace=wrap;html=1;fillColor=#dae8fc;strokeColor=#6c8ebf;" parent="1" vertex="1">
          <mxGeometry x="1311.53" y="95" width="90" height="40" as="geometry" />
        </mxCell>
        <mxCell id="fh_c4aW1x9fe1zc0Bb2D-240" value="name" style="ellipse;whiteSpace=wrap;html=1;fillColor=#dae8fc;strokeColor=#6c8ebf;" parent="1" vertex="1">
          <mxGeometry x="1406.53" y="95" width="90" height="40" as="geometry" />
        </mxCell>
        <mxCell id="fh_c4aW1x9fe1zc0Bb2D-241" value="description" style="ellipse;whiteSpace=wrap;html=1;fillColor=#dae8fc;strokeColor=#6c8ebf;" parent="1" vertex="1">
          <mxGeometry x="1501.53" y="95" width="90" height="40" as="geometry" />
        </mxCell>
        <mxCell id="fh_c4aW1x9fe1zc0Bb2D-243" value="_id" style="ellipse;whiteSpace=wrap;html=1;fillColor=#dae8fc;strokeColor=#6c8ebf;" parent="1" vertex="1">
          <mxGeometry x="1540" y="253.99999999999994" width="90" height="40" as="geometry" />
        </mxCell>
        <mxCell id="fh_c4aW1x9fe1zc0Bb2D-244" value="dayOfWeek" style="ellipse;whiteSpace=wrap;html=1;fillColor=#dae8fc;strokeColor=#6c8ebf;" parent="1" vertex="1">
          <mxGeometry x="1540" y="303.99999999999994" width="90" height="40" as="geometry" />
        </mxCell>
        <mxCell id="fh_c4aW1x9fe1zc0Bb2D-245" value="session" style="ellipse;whiteSpace=wrap;html=1;fillColor=#dae8fc;strokeColor=#6c8ebf;" parent="1" vertex="1">
          <mxGeometry x="1540" y="353.99999999999994" width="90" height="40" as="geometry" />
        </mxCell>
        <mxCell id="fh_c4aW1x9fe1zc0Bb2D-246" value="startAt" style="ellipse;whiteSpace=wrap;html=1;fillColor=#dae8fc;strokeColor=#6c8ebf;" parent="1" vertex="1">
          <mxGeometry x="1540" y="403.99999999999994" width="90" height="40" as="geometry" />
        </mxCell>
        <mxCell id="fh_c4aW1x9fe1zc0Bb2D-247" value="endAt" style="ellipse;whiteSpace=wrap;html=1;fillColor=#dae8fc;strokeColor=#6c8ebf;" parent="1" vertex="1">
          <mxGeometry x="1540" y="454" width="90" height="40" as="geometry" />
        </mxCell>
        <mxCell id="fh_c4aW1x9fe1zc0Bb2D-263" value="_id" style="ellipse;whiteSpace=wrap;html=1;fillColor=#dae8fc;strokeColor=#6c8ebf;" parent="1" vertex="1">
          <mxGeometry x="360" y="1050" width="90" height="40" as="geometry" />
        </mxCell>
        <mxCell id="fh_c4aW1x9fe1zc0Bb2D-264" value="fullname" style="ellipse;whiteSpace=wrap;html=1;fillColor=#dae8fc;strokeColor=#6c8ebf;" parent="1" vertex="1">
          <mxGeometry x="460" y="1050" width="90" height="40" as="geometry" />
        </mxCell>
        <mxCell id="fh_c4aW1x9fe1zc0Bb2D-265" value="email" style="ellipse;whiteSpace=wrap;html=1;fillColor=#dae8fc;strokeColor=#6c8ebf;" parent="1" vertex="1">
          <mxGeometry x="555" y="1050" width="90" height="40" as="geometry" />
        </mxCell>
        <mxCell id="fh_c4aW1x9fe1zc0Bb2D-266" value="password" style="ellipse;whiteSpace=wrap;html=1;fillColor=#dae8fc;strokeColor=#6c8ebf;" parent="1" vertex="1">
          <mxGeometry x="654" y="1050" width="90" height="40" as="geometry" />
        </mxCell>
        <mxCell id="fh_c4aW1x9fe1zc0Bb2D-267" value="phone" style="ellipse;whiteSpace=wrap;html=1;fillColor=#dae8fc;strokeColor=#6c8ebf;" parent="1" vertex="1">
          <mxGeometry x="751" y="1050" width="90" height="40" as="geometry" />
        </mxCell>
        <mxCell id="fh_c4aW1x9fe1zc0Bb2D-270" value="_id" style="ellipse;whiteSpace=wrap;html=1;fillColor=#dae8fc;strokeColor=#6c8ebf;" parent="1" vertex="1">
          <mxGeometry x="728" y="901" width="90" height="40" as="geometry" />
        </mxCell>
        <mxCell id="fh_c4aW1x9fe1zc0Bb2D-271" value="fullname" style="ellipse;whiteSpace=wrap;html=1;fillColor=#dae8fc;strokeColor=#6c8ebf;" parent="1" vertex="1">
          <mxGeometry x="823" y="901" width="90" height="40" as="geometry" />
        </mxCell>
        <mxCell id="fh_c4aW1x9fe1zc0Bb2D-272" value="gender" style="ellipse;whiteSpace=wrap;html=1;fillColor=#dae8fc;strokeColor=#6c8ebf;" parent="1" vertex="1">
          <mxGeometry x="918" y="901" width="90" height="40" as="geometry" />
        </mxCell>
        <mxCell id="fh_c4aW1x9fe1zc0Bb2D-273" value="address" style="ellipse;whiteSpace=wrap;html=1;fillColor=#dae8fc;strokeColor=#6c8ebf;" parent="1" vertex="1">
          <mxGeometry x="1013" y="901" width="90" height="40" as="geometry" />
        </mxCell>
        <mxCell id="fh_c4aW1x9fe1zc0Bb2D-274" value="currentGrade" style="ellipse;whiteSpace=wrap;html=1;fillColor=#dae8fc;strokeColor=#6c8ebf;" parent="1" vertex="1">
          <mxGeometry x="1108" y="901" width="90" height="40" as="geometry" />
        </mxCell>
        <mxCell id="fh_c4aW1x9fe1zc0Bb2D-275" value="birth" style="ellipse;whiteSpace=wrap;html=1;fillColor=#dae8fc;strokeColor=#6c8ebf;" parent="1" vertex="1">
          <mxGeometry x="1208" y="901" width="90" height="40" as="geometry" />
        </mxCell>
        <mxCell id="fh_c4aW1x9fe1zc0Bb2D-276" value="password" style="ellipse;whiteSpace=wrap;html=1;fillColor=#dae8fc;strokeColor=#6c8ebf;" parent="1" vertex="1">
          <mxGeometry x="1308" y="901" width="90" height="40" as="geometry" />
        </mxCell>
        <mxCell id="fh_c4aW1x9fe1zc0Bb2D-281" value="" style="endArrow=none;html=1;rounded=0;entryX=0.5;entryY=1;entryDx=0;entryDy=0;exitX=0.5;exitY=0;exitDx=0;exitDy=0;" parent="1" source="fh_c4aW1x9fe1zc0Bb2D-125" target="fh_c4aW1x9fe1zc0Bb2D-241" edge="1">
          <mxGeometry relative="1" as="geometry">
            <mxPoint x="1231.53" y="125" as="sourcePoint" />
            <mxPoint x="1391.53" y="125" as="targetPoint" />
          </mxGeometry>
        </mxCell>
        <mxCell id="fh_c4aW1x9fe1zc0Bb2D-282" value="" style="endArrow=none;html=1;rounded=0;entryX=0.5;entryY=0;entryDx=0;entryDy=0;exitX=0.5;exitY=1;exitDx=0;exitDy=0;" parent="1" source="fh_c4aW1x9fe1zc0Bb2D-239" target="fh_c4aW1x9fe1zc0Bb2D-125" edge="1">
          <mxGeometry relative="1" as="geometry">
            <mxPoint x="1231.53" y="125" as="sourcePoint" />
            <mxPoint x="1391.53" y="125" as="targetPoint" />
          </mxGeometry>
        </mxCell>
        <mxCell id="fh_c4aW1x9fe1zc0Bb2D-283" value="" style="endArrow=none;html=1;rounded=0;entryX=0.5;entryY=0;entryDx=0;entryDy=0;exitX=0.5;exitY=1;exitDx=0;exitDy=0;" parent="1" source="fh_c4aW1x9fe1zc0Bb2D-240" target="fh_c4aW1x9fe1zc0Bb2D-125" edge="1">
          <mxGeometry relative="1" as="geometry">
            <mxPoint x="1231.53" y="125" as="sourcePoint" />
            <mxPoint x="1391.53" y="125" as="targetPoint" />
          </mxGeometry>
        </mxCell>
        <mxCell id="fh_c4aW1x9fe1zc0Bb2D-314" value="" style="endArrow=none;html=1;rounded=0;exitX=0.5;exitY=0;exitDx=0;exitDy=0;entryX=0.5;entryY=1;entryDx=0;entryDy=0;" parent="1" source="fh_c4aW1x9fe1zc0Bb2D-119" target="fh_c4aW1x9fe1zc0Bb2D-163" edge="1">
          <mxGeometry width="50" height="50" relative="1" as="geometry">
            <mxPoint x="1030" y="170" as="sourcePoint" />
            <mxPoint x="1080" y="120" as="targetPoint" />
          </mxGeometry>
        </mxCell>
        <mxCell id="fh_c4aW1x9fe1zc0Bb2D-316" value="1" style="edgeLabel;html=1;align=center;verticalAlign=middle;resizable=0;points=[];" parent="fh_c4aW1x9fe1zc0Bb2D-314" vertex="1" connectable="0">
          <mxGeometry x="0.7585" relative="1" as="geometry">
            <mxPoint x="7" y="4" as="offset" />
          </mxGeometry>
        </mxCell>
        <mxCell id="fh_c4aW1x9fe1zc0Bb2D-318" value="" style="endArrow=none;html=1;rounded=0;exitX=0.5;exitY=1;exitDx=0;exitDy=0;entryX=0.25;entryY=0;entryDx=0;entryDy=0;" parent="1" source="fh_c4aW1x9fe1zc0Bb2D-229" target="fh_c4aW1x9fe1zc0Bb2D-122" edge="1">
          <mxGeometry relative="1" as="geometry">
            <mxPoint x="610" y="540" as="sourcePoint" />
            <mxPoint x="770" y="540" as="targetPoint" />
          </mxGeometry>
        </mxCell>
        <mxCell id="fh_c4aW1x9fe1zc0Bb2D-319" value="" style="endArrow=none;html=1;rounded=0;exitX=0.5;exitY=1;exitDx=0;exitDy=0;entryX=0.75;entryY=0;entryDx=0;entryDy=0;" parent="1" source="fh_c4aW1x9fe1zc0Bb2D-230" target="fh_c4aW1x9fe1zc0Bb2D-122" edge="1">
          <mxGeometry relative="1" as="geometry">
            <mxPoint x="610" y="540" as="sourcePoint" />
            <mxPoint x="770" y="540" as="targetPoint" />
          </mxGeometry>
        </mxCell>
        <mxCell id="fh_c4aW1x9fe1zc0Bb2D-320" value="" style="endArrow=none;html=1;rounded=0;entryX=0.5;entryY=0;entryDx=0;entryDy=0;exitX=0.25;exitY=1;exitDx=0;exitDy=0;" parent="1" source="fh_c4aW1x9fe1zc0Bb2D-122" target="fh_c4aW1x9fe1zc0Bb2D-231" edge="1">
          <mxGeometry relative="1" as="geometry">
            <mxPoint x="610" y="540" as="sourcePoint" />
            <mxPoint x="770" y="540" as="targetPoint" />
          </mxGeometry>
        </mxCell>
        <mxCell id="fh_c4aW1x9fe1zc0Bb2D-321" value="" style="endArrow=none;html=1;rounded=0;entryX=0;entryY=0.75;entryDx=0;entryDy=0;exitX=0.5;exitY=0;exitDx=0;exitDy=0;edgeStyle=orthogonalEdgeStyle;" parent="1" source="fh_c4aW1x9fe1zc0Bb2D-169" target="fh_c4aW1x9fe1zc0Bb2D-119" edge="1">
          <mxGeometry relative="1" as="geometry">
            <mxPoint x="670" y="440" as="sourcePoint" />
            <mxPoint x="830" y="440" as="targetPoint" />
          </mxGeometry>
        </mxCell>
        <mxCell id="fh_c4aW1x9fe1zc0Bb2D-329" value="1" style="edgeLabel;html=1;align=center;verticalAlign=middle;resizable=0;points=[];" parent="fh_c4aW1x9fe1zc0Bb2D-321" vertex="1" connectable="0">
          <mxGeometry x="-0.8921" y="-1" relative="1" as="geometry">
            <mxPoint x="6" y="3" as="offset" />
          </mxGeometry>
        </mxCell>
        <mxCell id="fh_c4aW1x9fe1zc0Bb2D-331" value="" style="endArrow=none;html=1;rounded=0;exitX=1;exitY=0.5;exitDx=0;exitDy=0;entryX=0;entryY=0.5;entryDx=0;entryDy=0;" parent="1" source="fh_c4aW1x9fe1zc0Bb2D-123" target="fh_c4aW1x9fe1zc0Bb2D-175" edge="1">
          <mxGeometry relative="1" as="geometry">
            <mxPoint x="473" y="187.5" as="sourcePoint" />
            <mxPoint x="633" y="187.5" as="targetPoint" />
          </mxGeometry>
        </mxCell>
        <mxCell id="fh_c4aW1x9fe1zc0Bb2D-332" value="1" style="edgeLabel;html=1;align=center;verticalAlign=middle;resizable=0;points=[];" parent="fh_c4aW1x9fe1zc0Bb2D-331" vertex="1" connectable="0">
          <mxGeometry x="0.4769" y="1" relative="1" as="geometry">
            <mxPoint x="7" y="-11" as="offset" />
          </mxGeometry>
        </mxCell>
        <mxCell id="fh_c4aW1x9fe1zc0Bb2D-337" value="" style="endArrow=none;html=1;rounded=0;exitX=1;exitY=0.75;exitDx=0;exitDy=0;entryX=0.5;entryY=0;entryDx=0;entryDy=0;edgeStyle=orthogonalEdgeStyle;" parent="1" source="fh_c4aW1x9fe1zc0Bb2D-119" target="fh_c4aW1x9fe1zc0Bb2D-183" edge="1">
          <mxGeometry relative="1" as="geometry">
            <mxPoint x="870" y="302.5" as="sourcePoint" />
            <mxPoint x="1050" y="227.5" as="targetPoint" />
          </mxGeometry>
        </mxCell>
        <mxCell id="fh_c4aW1x9fe1zc0Bb2D-338" value="1" style="edgeLabel;html=1;align=center;verticalAlign=middle;resizable=0;points=[];" parent="fh_c4aW1x9fe1zc0Bb2D-337" vertex="1" connectable="0">
          <mxGeometry x="0.6979" y="1" relative="1" as="geometry">
            <mxPoint x="5" y="23" as="offset" />
          </mxGeometry>
        </mxCell>
        <mxCell id="fh_c4aW1x9fe1zc0Bb2D-345" value="" style="endArrow=none;html=1;rounded=0;entryX=0.5;entryY=0;entryDx=0;entryDy=0;exitX=0.5;exitY=1;exitDx=0;exitDy=0;" parent="1" source="fh_c4aW1x9fe1zc0Bb2D-125" target="fh_c4aW1x9fe1zc0Bb2D-133" edge="1">
          <mxGeometry relative="1" as="geometry">
            <mxPoint x="1201.53" y="349" as="sourcePoint" />
            <mxPoint x="1361.53" y="349" as="targetPoint" />
          </mxGeometry>
        </mxCell>
        <mxCell id="fh_c4aW1x9fe1zc0Bb2D-346" value="N" style="edgeLabel;html=1;align=center;verticalAlign=middle;resizable=0;points=[];" parent="fh_c4aW1x9fe1zc0Bb2D-345" vertex="1" connectable="0">
          <mxGeometry x="0.4226" relative="1" as="geometry">
            <mxPoint x="6" y="6" as="offset" />
          </mxGeometry>
        </mxCell>
        <mxCell id="fh_c4aW1x9fe1zc0Bb2D-360" value="" style="endArrow=none;html=1;rounded=0;exitX=0.5;exitY=1;exitDx=0;exitDy=0;entryX=0.5;entryY=0;entryDx=0;entryDy=0;" parent="1" source="fh_c4aW1x9fe1zc0Bb2D-123" target="fh_c4aW1x9fe1zc0Bb2D-188" edge="1">
          <mxGeometry relative="1" as="geometry">
            <mxPoint x="383" y="574.5" as="sourcePoint" />
            <mxPoint x="373" y="514.5" as="targetPoint" />
          </mxGeometry>
        </mxCell>
        <mxCell id="fh_c4aW1x9fe1zc0Bb2D-361" value="1" style="edgeLabel;html=1;align=center;verticalAlign=middle;resizable=0;points=[];" parent="fh_c4aW1x9fe1zc0Bb2D-360" vertex="1" connectable="0">
          <mxGeometry x="0.7789" y="2" relative="1" as="geometry">
            <mxPoint x="5" y="9" as="offset" />
          </mxGeometry>
        </mxCell>
        <mxCell id="fh_c4aW1x9fe1zc0Bb2D-363" value="" style="endArrow=none;html=1;rounded=0;entryX=0;entryY=0.5;entryDx=0;entryDy=0;exitX=1;exitY=0.5;exitDx=0;exitDy=0;" parent="1" source="fh_c4aW1x9fe1zc0Bb2D-191" target="fh_c4aW1x9fe1zc0Bb2D-128" edge="1">
          <mxGeometry relative="1" as="geometry">
            <mxPoint x="620" y="850" as="sourcePoint" />
            <mxPoint x="780" y="850" as="targetPoint" />
          </mxGeometry>
        </mxCell>
        <mxCell id="fh_c4aW1x9fe1zc0Bb2D-369" value="N" style="edgeLabel;html=1;align=center;verticalAlign=middle;resizable=0;points=[];" parent="fh_c4aW1x9fe1zc0Bb2D-363" vertex="1" connectable="0">
          <mxGeometry x="-0.9557" y="-1" relative="1" as="geometry">
            <mxPoint x="-9" y="-10" as="offset" />
          </mxGeometry>
        </mxCell>
        <mxCell id="fh_c4aW1x9fe1zc0Bb2D-364" value="" style="endArrow=none;html=1;rounded=0;exitX=0.5;exitY=1;exitDx=0;exitDy=0;entryX=0;entryY=0.5;entryDx=0;entryDy=0;edgeStyle=orthogonalEdgeStyle;" parent="1" source="fh_c4aW1x9fe1zc0Bb2D-194" target="fh_c4aW1x9fe1zc0Bb2D-129" edge="1">
          <mxGeometry relative="1" as="geometry">
            <mxPoint x="620" y="850" as="sourcePoint" />
            <mxPoint x="780" y="850" as="targetPoint" />
          </mxGeometry>
        </mxCell>
        <mxCell id="fh_c4aW1x9fe1zc0Bb2D-367" value="N" style="edgeLabel;html=1;align=center;verticalAlign=middle;resizable=0;points=[];" parent="fh_c4aW1x9fe1zc0Bb2D-364" vertex="1" connectable="0">
          <mxGeometry x="-0.6037" y="2" relative="1" as="geometry">
            <mxPoint x="5" y="-67" as="offset" />
          </mxGeometry>
        </mxCell>
        <mxCell id="6AYaxFPfaX3n9xTRVo3Z-2" value="sender" style="ellipse;whiteSpace=wrap;html=1;fillColor=#dae8fc;strokeColor=#6c8ebf;" parent="1" vertex="1">
          <mxGeometry x="153" y="744" width="90" height="40" as="geometry" />
        </mxCell>
        <mxCell id="6AYaxFPfaX3n9xTRVo3Z-3" value="receiver" style="ellipse;whiteSpace=wrap;html=1;fillColor=#dae8fc;strokeColor=#6c8ebf;" parent="1" vertex="1">
          <mxGeometry x="153" y="794" width="90" height="40" as="geometry" />
        </mxCell>
        <mxCell id="6AYaxFPfaX3n9xTRVo3Z-4" value="type" style="ellipse;whiteSpace=wrap;html=1;fillColor=#dae8fc;strokeColor=#6c8ebf;" parent="1" vertex="1">
          <mxGeometry x="153" y="844" width="90" height="40" as="geometry" />
        </mxCell>
        <mxCell id="6AYaxFPfaX3n9xTRVo3Z-5" value="createdAt" style="ellipse;whiteSpace=wrap;html=1;fillColor=#dae8fc;strokeColor=#6c8ebf;" parent="1" vertex="1">
          <mxGeometry x="153" y="894" width="90" height="40" as="geometry" />
        </mxCell>
        <mxCell id="6AYaxFPfaX3n9xTRVo3Z-15" value="student" style="ellipse;whiteSpace=wrap;html=1;fillColor=#dae8fc;strokeColor=#6c8ebf;" parent="1" vertex="1">
          <mxGeometry x="1345" width="90" height="40" as="geometry" />
        </mxCell>
        <mxCell id="6AYaxFPfaX3n9xTRVo3Z-17" value="" style="endArrow=none;html=1;rounded=0;exitX=0.5;exitY=1;exitDx=0;exitDy=0;entryX=1;entryY=0;entryDx=0;entryDy=0;" parent="1" source="6AYaxFPfaX3n9xTRVo3Z-15" target="fh_c4aW1x9fe1zc0Bb2D-126" edge="1">
          <mxGeometry relative="1" as="geometry">
            <mxPoint x="1140" y="180" as="sourcePoint" />
            <mxPoint x="1300" y="180" as="targetPoint" />
          </mxGeometry>
        </mxCell>
        <mxCell id="6AYaxFPfaX3n9xTRVo3Z-18" value="" style="endArrow=none;html=1;rounded=0;exitX=0.5;exitY=1;exitDx=0;exitDy=0;entryX=0.5;entryY=0;entryDx=0;entryDy=0;" parent="1" source="fh_c4aW1x9fe1zc0Bb2D-206" target="fh_c4aW1x9fe1zc0Bb2D-126" edge="1">
          <mxGeometry relative="1" as="geometry">
            <mxPoint x="1140" y="180" as="sourcePoint" />
            <mxPoint x="1300" y="180" as="targetPoint" />
          </mxGeometry>
        </mxCell>
        <mxCell id="6AYaxFPfaX3n9xTRVo3Z-19" value="" style="endArrow=none;html=1;rounded=0;exitX=0.5;exitY=1;exitDx=0;exitDy=0;entryX=0.5;entryY=0;entryDx=0;entryDy=0;" parent="1" source="fh_c4aW1x9fe1zc0Bb2D-205" target="fh_c4aW1x9fe1zc0Bb2D-126" edge="1">
          <mxGeometry relative="1" as="geometry">
            <mxPoint x="1140" y="180" as="sourcePoint" />
            <mxPoint x="1300" y="180" as="targetPoint" />
          </mxGeometry>
        </mxCell>
        <mxCell id="6AYaxFPfaX3n9xTRVo3Z-20" value="" style="endArrow=none;html=1;rounded=0;exitX=0.5;exitY=1;exitDx=0;exitDy=0;entryX=0.5;entryY=0;entryDx=0;entryDy=0;" parent="1" source="fh_c4aW1x9fe1zc0Bb2D-204" target="fh_c4aW1x9fe1zc0Bb2D-126" edge="1">
          <mxGeometry relative="1" as="geometry">
            <mxPoint x="1140" y="180" as="sourcePoint" />
            <mxPoint x="1300" y="180" as="targetPoint" />
          </mxGeometry>
        </mxCell>
        <mxCell id="6AYaxFPfaX3n9xTRVo3Z-21" value="" style="endArrow=none;html=1;rounded=0;exitX=0.5;exitY=1;exitDx=0;exitDy=0;entryX=0;entryY=0;entryDx=0;entryDy=0;" parent="1" source="fh_c4aW1x9fe1zc0Bb2D-203" target="fh_c4aW1x9fe1zc0Bb2D-126" edge="1">
          <mxGeometry relative="1" as="geometry">
            <mxPoint x="1140" y="180" as="sourcePoint" />
            <mxPoint x="1300" y="180" as="targetPoint" />
          </mxGeometry>
        </mxCell>
        <mxCell id="6AYaxFPfaX3n9xTRVo3Z-26" value="_id" style="ellipse;whiteSpace=wrap;html=1;fillColor=#dae8fc;strokeColor=#6c8ebf;" parent="1" vertex="1">
          <mxGeometry x="823" y="551" width="90" height="40" as="geometry" />
        </mxCell>
        <mxCell id="6AYaxFPfaX3n9xTRVo3Z-27" value="name" style="ellipse;whiteSpace=wrap;html=1;fillColor=#dae8fc;strokeColor=#6c8ebf;" parent="1" vertex="1">
          <mxGeometry x="835" y="599" width="90" height="40" as="geometry" />
        </mxCell>
        <mxCell id="6AYaxFPfaX3n9xTRVo3Z-28" value="currentYear" style="ellipse;whiteSpace=wrap;html=1;fillColor=#dae8fc;strokeColor=#6c8ebf;" parent="1" vertex="1">
          <mxGeometry x="905" y="640" width="90" height="40" as="geometry" />
        </mxCell>
        <mxCell id="6AYaxFPfaX3n9xTRVo3Z-29" value="teacher" style="ellipse;whiteSpace=wrap;html=1;fillColor=#dae8fc;strokeColor=#6c8ebf;" parent="1" vertex="1">
          <mxGeometry x="1005" y="640" width="90" height="40" as="geometry" />
        </mxCell>
        <mxCell id="6AYaxFPfaX3n9xTRVo3Z-31" value="creaedAt" style="ellipse;whiteSpace=wrap;html=1;fillColor=#dae8fc;strokeColor=#6c8ebf;" parent="1" vertex="1">
          <mxGeometry x="1130" y="577" width="90" height="40" as="geometry" />
        </mxCell>
        <mxCell id="6AYaxFPfaX3n9xTRVo3Z-32" value="" style="endArrow=none;html=1;rounded=0;entryX=0;entryY=0.75;entryDx=0;entryDy=0;exitX=1;exitY=0.5;exitDx=0;exitDy=0;edgeStyle=orthogonalEdgeStyle;" parent="1" source="fh_c4aW1x9fe1zc0Bb2D-144" target="fh_c4aW1x9fe1zc0Bb2D-125" edge="1">
          <mxGeometry relative="1" as="geometry">
            <mxPoint x="810" y="320" as="sourcePoint" />
            <mxPoint x="970" y="320" as="targetPoint" />
            <Array as="points">
              <mxPoint x="1170" y="330" />
              <mxPoint x="1170" y="194" />
              <mxPoint x="1392" y="194" />
            </Array>
          </mxGeometry>
        </mxCell>
        <mxCell id="6AYaxFPfaX3n9xTRVo3Z-33" value="1" style="edgeLabel;html=1;align=center;verticalAlign=middle;resizable=0;points=[];" parent="6AYaxFPfaX3n9xTRVo3Z-32" vertex="1" connectable="0">
          <mxGeometry x="-0.9492" y="1" relative="1" as="geometry">
            <mxPoint x="-14" y="-10" as="offset" />
          </mxGeometry>
        </mxCell>
        <mxCell id="6AYaxFPfaX3n9xTRVo3Z-34" value="grade" style="ellipse;whiteSpace=wrap;html=1;fillColor=#dae8fc;strokeColor=#6c8ebf;" parent="1" vertex="1">
          <mxGeometry x="1100" y="640" width="90" height="40" as="geometry" />
        </mxCell>
        <mxCell id="6AYaxFPfaX3n9xTRVo3Z-37" value="students" style="ellipse;shape=doubleEllipse;margin=3;whiteSpace=wrap;html=1;align=center;fillColor=#dae8fc;strokeColor=#6c8ebf;" parent="1" vertex="1">
          <mxGeometry x="1090" y="442" width="90" height="40" as="geometry" />
        </mxCell>
        <mxCell id="6AYaxFPfaX3n9xTRVo3Z-38" value="" style="endArrow=none;html=1;rounded=0;entryX=0.25;entryY=1;entryDx=0;entryDy=0;exitX=0.5;exitY=0;exitDx=0;exitDy=0;" parent="1" source="6AYaxFPfaX3n9xTRVo3Z-28" target="fh_c4aW1x9fe1zc0Bb2D-121" edge="1">
          <mxGeometry relative="1" as="geometry">
            <mxPoint x="960" y="571" as="sourcePoint" />
            <mxPoint x="1120" y="571" as="targetPoint" />
          </mxGeometry>
        </mxCell>
        <mxCell id="6AYaxFPfaX3n9xTRVo3Z-39" value="" style="endArrow=none;html=1;rounded=0;entryX=0;entryY=1;entryDx=0;entryDy=0;exitX=0.5;exitY=0;exitDx=0;exitDy=0;" parent="1" source="6AYaxFPfaX3n9xTRVo3Z-27" target="fh_c4aW1x9fe1zc0Bb2D-121" edge="1">
          <mxGeometry relative="1" as="geometry">
            <mxPoint x="960" y="571" as="sourcePoint" />
            <mxPoint x="1120" y="571" as="targetPoint" />
          </mxGeometry>
        </mxCell>
        <mxCell id="6AYaxFPfaX3n9xTRVo3Z-40" value="" style="endArrow=none;html=1;rounded=0;entryX=0.5;entryY=0;entryDx=0;entryDy=0;exitX=0.5;exitY=1;exitDx=0;exitDy=0;" parent="1" source="fh_c4aW1x9fe1zc0Bb2D-121" target="6AYaxFPfaX3n9xTRVo3Z-29" edge="1">
          <mxGeometry relative="1" as="geometry">
            <mxPoint x="960" y="571" as="sourcePoint" />
            <mxPoint x="1120" y="571" as="targetPoint" />
          </mxGeometry>
        </mxCell>
        <mxCell id="6AYaxFPfaX3n9xTRVo3Z-41" value="" style="endArrow=none;html=1;rounded=0;entryX=0.5;entryY=0;entryDx=0;entryDy=0;exitX=0.75;exitY=1;exitDx=0;exitDy=0;" parent="1" source="fh_c4aW1x9fe1zc0Bb2D-121" target="6AYaxFPfaX3n9xTRVo3Z-34" edge="1">
          <mxGeometry relative="1" as="geometry">
            <mxPoint x="960" y="571" as="sourcePoint" />
            <mxPoint x="1120" y="571" as="targetPoint" />
          </mxGeometry>
        </mxCell>
        <mxCell id="6AYaxFPfaX3n9xTRVo3Z-42" value="" style="endArrow=none;html=1;rounded=0;exitX=1;exitY=0.5;exitDx=0;exitDy=0;entryX=0;entryY=0.75;entryDx=0;entryDy=0;" parent="1" source="6AYaxFPfaX3n9xTRVo3Z-26" target="fh_c4aW1x9fe1zc0Bb2D-121" edge="1">
          <mxGeometry relative="1" as="geometry">
            <mxPoint x="960" y="571" as="sourcePoint" />
            <mxPoint x="1120" y="571" as="targetPoint" />
          </mxGeometry>
        </mxCell>
        <mxCell id="6AYaxFPfaX3n9xTRVo3Z-47" value="schedule" style="ellipse;shape=doubleEllipse;margin=3;whiteSpace=wrap;html=1;align=center;fillColor=#dae8fc;strokeColor=#6c8ebf;" parent="1" vertex="1">
          <mxGeometry x="1190" y="461" width="90" height="40" as="geometry" />
        </mxCell>
        <mxCell id="6AYaxFPfaX3n9xTRVo3Z-49" value="students" style="ellipse;shape=doubleEllipse;margin=3;whiteSpace=wrap;html=1;align=center;fillColor=#dae8fc;strokeColor=#6c8ebf;" parent="1" vertex="1">
          <mxGeometry x="850" y="1050" width="90" height="40" as="geometry" />
        </mxCell>
        <mxCell id="6AYaxFPfaX3n9xTRVo3Z-53" value="" style="endArrow=none;html=1;rounded=0;exitX=1;exitY=0.75;exitDx=0;exitDy=0;entryX=0.5;entryY=0;entryDx=0;entryDy=0;" parent="1" source="fh_c4aW1x9fe1zc0Bb2D-129" target="6AYaxFPfaX3n9xTRVo3Z-49" edge="1">
          <mxGeometry relative="1" as="geometry">
            <mxPoint x="730" y="1030" as="sourcePoint" />
            <mxPoint x="890" y="1030" as="targetPoint" />
          </mxGeometry>
        </mxCell>
        <mxCell id="6AYaxFPfaX3n9xTRVo3Z-55" value="" style="endArrow=none;html=1;rounded=0;exitX=1;exitY=1;exitDx=0;exitDy=0;entryX=0.5;entryY=0;entryDx=0;entryDy=0;" parent="1" source="fh_c4aW1x9fe1zc0Bb2D-129" target="fh_c4aW1x9fe1zc0Bb2D-267" edge="1">
          <mxGeometry relative="1" as="geometry">
            <mxPoint x="730" y="1030" as="sourcePoint" />
            <mxPoint x="890" y="1030" as="targetPoint" />
          </mxGeometry>
        </mxCell>
        <mxCell id="6AYaxFPfaX3n9xTRVo3Z-56" value="" style="endArrow=none;html=1;rounded=0;exitX=0.5;exitY=1;exitDx=0;exitDy=0;entryX=0.5;entryY=0;entryDx=0;entryDy=0;" parent="1" source="fh_c4aW1x9fe1zc0Bb2D-129" target="fh_c4aW1x9fe1zc0Bb2D-266" edge="1">
          <mxGeometry relative="1" as="geometry">
            <mxPoint x="730" y="1030" as="sourcePoint" />
            <mxPoint x="890" y="1030" as="targetPoint" />
          </mxGeometry>
        </mxCell>
        <mxCell id="6AYaxFPfaX3n9xTRVo3Z-57" value="" style="endArrow=none;html=1;rounded=0;exitX=0.5;exitY=0;exitDx=0;exitDy=0;entryX=0.5;entryY=1;entryDx=0;entryDy=0;" parent="1" source="fh_c4aW1x9fe1zc0Bb2D-265" target="fh_c4aW1x9fe1zc0Bb2D-129" edge="1">
          <mxGeometry relative="1" as="geometry">
            <mxPoint x="730" y="1030" as="sourcePoint" />
            <mxPoint x="890" y="1030" as="targetPoint" />
          </mxGeometry>
        </mxCell>
        <mxCell id="6AYaxFPfaX3n9xTRVo3Z-58" value="" style="endArrow=none;html=1;rounded=0;entryX=0.5;entryY=0;entryDx=0;entryDy=0;exitX=0;exitY=1;exitDx=0;exitDy=0;" parent="1" source="fh_c4aW1x9fe1zc0Bb2D-129" target="fh_c4aW1x9fe1zc0Bb2D-264" edge="1">
          <mxGeometry relative="1" as="geometry">
            <mxPoint x="730" y="1030" as="sourcePoint" />
            <mxPoint x="890" y="1030" as="targetPoint" />
          </mxGeometry>
        </mxCell>
        <mxCell id="6AYaxFPfaX3n9xTRVo3Z-59" value="" style="endArrow=none;html=1;rounded=0;exitX=0.5;exitY=0;exitDx=0;exitDy=0;entryX=0;entryY=0.75;entryDx=0;entryDy=0;" parent="1" source="fh_c4aW1x9fe1zc0Bb2D-263" target="fh_c4aW1x9fe1zc0Bb2D-129" edge="1">
          <mxGeometry relative="1" as="geometry">
            <mxPoint x="730" y="1030" as="sourcePoint" />
            <mxPoint x="890" y="1030" as="targetPoint" />
          </mxGeometry>
        </mxCell>
        <mxCell id="6AYaxFPfaX3n9xTRVo3Z-60" value="class" style="ellipse;whiteSpace=wrap;html=1;fillColor=#dae8fc;strokeColor=#6c8ebf;" parent="1" vertex="1">
          <mxGeometry x="1540" y="501" width="90" height="40" as="geometry" />
        </mxCell>
        <mxCell id="6AYaxFPfaX3n9xTRVo3Z-61" value="subject" style="ellipse;whiteSpace=wrap;html=1;fillColor=#dae8fc;strokeColor=#6c8ebf;" parent="1" vertex="1">
          <mxGeometry x="1540" y="551" width="90" height="40" as="geometry" />
        </mxCell>
        <mxCell id="6AYaxFPfaX3n9xTRVo3Z-62" value="" style="endArrow=none;html=1;rounded=0;exitX=1;exitY=1;exitDx=0;exitDy=0;entryX=0;entryY=0.5;entryDx=0;entryDy=0;" parent="1" source="fh_c4aW1x9fe1zc0Bb2D-124" target="6AYaxFPfaX3n9xTRVo3Z-61" edge="1">
          <mxGeometry relative="1" as="geometry">
            <mxPoint x="1730" y="500" as="sourcePoint" />
            <mxPoint x="1890" y="500" as="targetPoint" />
          </mxGeometry>
        </mxCell>
        <mxCell id="6AYaxFPfaX3n9xTRVo3Z-63" value="" style="endArrow=none;html=1;rounded=0;exitX=1;exitY=0.75;exitDx=0;exitDy=0;entryX=0;entryY=0.5;entryDx=0;entryDy=0;" parent="1" source="fh_c4aW1x9fe1zc0Bb2D-124" target="6AYaxFPfaX3n9xTRVo3Z-60" edge="1">
          <mxGeometry relative="1" as="geometry">
            <mxPoint x="1730" y="500" as="sourcePoint" />
            <mxPoint x="1890" y="500" as="targetPoint" />
          </mxGeometry>
        </mxCell>
        <mxCell id="6AYaxFPfaX3n9xTRVo3Z-64" value="" style="endArrow=none;html=1;rounded=0;exitX=1;exitY=0.5;exitDx=0;exitDy=0;entryX=0;entryY=0.5;entryDx=0;entryDy=0;" parent="1" source="fh_c4aW1x9fe1zc0Bb2D-124" target="fh_c4aW1x9fe1zc0Bb2D-245" edge="1">
          <mxGeometry relative="1" as="geometry">
            <mxPoint x="1730" y="500" as="sourcePoint" />
            <mxPoint x="1890" y="500" as="targetPoint" />
          </mxGeometry>
        </mxCell>
        <mxCell id="6AYaxFPfaX3n9xTRVo3Z-65" value="" style="endArrow=none;html=1;rounded=0;exitX=1;exitY=0.5;exitDx=0;exitDy=0;entryX=0;entryY=0.5;entryDx=0;entryDy=0;" parent="1" source="fh_c4aW1x9fe1zc0Bb2D-124" target="fh_c4aW1x9fe1zc0Bb2D-247" edge="1">
          <mxGeometry relative="1" as="geometry">
            <mxPoint x="1730" y="500" as="sourcePoint" />
            <mxPoint x="1890" y="500" as="targetPoint" />
          </mxGeometry>
        </mxCell>
        <mxCell id="6AYaxFPfaX3n9xTRVo3Z-66" value="" style="endArrow=none;html=1;rounded=0;exitX=1;exitY=0.25;exitDx=0;exitDy=0;entryX=0;entryY=0.5;entryDx=0;entryDy=0;" parent="1" source="fh_c4aW1x9fe1zc0Bb2D-124" target="fh_c4aW1x9fe1zc0Bb2D-244" edge="1">
          <mxGeometry relative="1" as="geometry">
            <mxPoint x="1760" y="502" as="sourcePoint" />
            <mxPoint x="1920" y="502" as="targetPoint" />
          </mxGeometry>
        </mxCell>
        <mxCell id="6AYaxFPfaX3n9xTRVo3Z-67" value="" style="endArrow=none;html=1;rounded=0;exitX=1;exitY=0.5;exitDx=0;exitDy=0;entryX=0;entryY=0.5;entryDx=0;entryDy=0;" parent="1" source="fh_c4aW1x9fe1zc0Bb2D-124" target="fh_c4aW1x9fe1zc0Bb2D-246" edge="1">
          <mxGeometry relative="1" as="geometry">
            <mxPoint x="1730" y="500" as="sourcePoint" />
            <mxPoint x="1890" y="500" as="targetPoint" />
          </mxGeometry>
        </mxCell>
        <mxCell id="6AYaxFPfaX3n9xTRVo3Z-68" value="" style="endArrow=none;html=1;rounded=0;exitX=1;exitY=0;exitDx=0;exitDy=0;entryX=0;entryY=0.5;entryDx=0;entryDy=0;" parent="1" source="fh_c4aW1x9fe1zc0Bb2D-124" target="fh_c4aW1x9fe1zc0Bb2D-243" edge="1">
          <mxGeometry relative="1" as="geometry">
            <mxPoint x="1730" y="500" as="sourcePoint" />
            <mxPoint x="1890" y="500" as="targetPoint" />
          </mxGeometry>
        </mxCell>
        <mxCell id="6AYaxFPfaX3n9xTRVo3Z-71" value="isHomeroom" style="ellipse;whiteSpace=wrap;html=1;fillColor=#dae8fc;strokeColor=#6c8ebf;" parent="1" vertex="1">
          <mxGeometry x="153" y="390.5" width="90" height="40" as="geometry" />
        </mxCell>
        <mxCell id="6AYaxFPfaX3n9xTRVo3Z-72" value="phone" style="ellipse;whiteSpace=wrap;html=1;fillColor=#dae8fc;strokeColor=#6c8ebf;" parent="1" vertex="1">
          <mxGeometry x="153" y="345.5" width="90" height="40" as="geometry" />
        </mxCell>
        <mxCell id="6AYaxFPfaX3n9xTRVo3Z-83" value="" style="endArrow=none;html=1;rounded=0;entryX=0.5;entryY=1;entryDx=0;entryDy=0;exitX=1;exitY=0;exitDx=0;exitDy=0;" parent="1" source="fh_c4aW1x9fe1zc0Bb2D-121" target="6AYaxFPfaX3n9xTRVo3Z-37" edge="1">
          <mxGeometry relative="1" as="geometry">
            <mxPoint x="1040" y="540" as="sourcePoint" />
            <mxPoint x="1200" y="540" as="targetPoint" />
          </mxGeometry>
        </mxCell>
        <mxCell id="6AYaxFPfaX3n9xTRVo3Z-86" value="" style="endArrow=none;html=1;rounded=0;entryX=0;entryY=0.5;entryDx=0;entryDy=0;exitX=1;exitY=0.25;exitDx=0;exitDy=0;" parent="1" source="fh_c4aW1x9fe1zc0Bb2D-121" target="6AYaxFPfaX3n9xTRVo3Z-47" edge="1">
          <mxGeometry relative="1" as="geometry">
            <mxPoint x="1040" y="540" as="sourcePoint" />
            <mxPoint x="1200" y="540" as="targetPoint" />
          </mxGeometry>
        </mxCell>
        <mxCell id="6AYaxFPfaX3n9xTRVo3Z-87" value="student" style="ellipse;whiteSpace=wrap;html=1;fillColor=#dae8fc;strokeColor=#6c8ebf;" parent="1" vertex="1">
          <mxGeometry x="900" y="345.5" width="90" height="40" as="geometry" />
        </mxCell>
        <mxCell id="6AYaxFPfaX3n9xTRVo3Z-88" value="subject" style="ellipse;whiteSpace=wrap;html=1;fillColor=#dae8fc;strokeColor=#6c8ebf;" parent="1" vertex="1">
          <mxGeometry x="900" y="390.5" width="90" height="40" as="geometry" />
        </mxCell>
        <mxCell id="6AYaxFPfaX3n9xTRVo3Z-89" value="year" style="ellipse;whiteSpace=wrap;html=1;fillColor=#dae8fc;strokeColor=#6c8ebf;" parent="1" vertex="1">
          <mxGeometry x="900" y="436" width="90" height="40" as="geometry" />
        </mxCell>
        <mxCell id="6AYaxFPfaX3n9xTRVo3Z-90" value="status" style="ellipse;whiteSpace=wrap;html=1;fillColor=#dae8fc;strokeColor=#6c8ebf;" parent="1" vertex="1">
          <mxGeometry x="900" y="482" width="90" height="40" as="geometry" />
        </mxCell>
        <mxCell id="6AYaxFPfaX3n9xTRVo3Z-91" value="levelAchieved" style="ellipse;whiteSpace=wrap;html=1;fillColor=#dae8fc;strokeColor=#6c8ebf;" parent="1" vertex="1">
          <mxGeometry x="790" y="482" width="90" height="40" as="geometry" />
        </mxCell>
        <mxCell id="6AYaxFPfaX3n9xTRVo3Z-92" value="" style="endArrow=none;html=1;rounded=0;exitX=0;exitY=0.5;exitDx=0;exitDy=0;entryX=1;entryY=0.5;entryDx=0;entryDy=0;" parent="1" source="6AYaxFPfaX3n9xTRVo3Z-89" target="fh_c4aW1x9fe1zc0Bb2D-122" edge="1">
          <mxGeometry relative="1" as="geometry">
            <mxPoint x="820" y="440" as="sourcePoint" />
            <mxPoint x="980" y="440" as="targetPoint" />
          </mxGeometry>
        </mxCell>
        <mxCell id="6AYaxFPfaX3n9xTRVo3Z-93" value="" style="endArrow=none;html=1;rounded=0;exitX=1;exitY=0.75;exitDx=0;exitDy=0;entryX=0;entryY=0;entryDx=0;entryDy=0;" parent="1" source="fh_c4aW1x9fe1zc0Bb2D-122" target="6AYaxFPfaX3n9xTRVo3Z-90" edge="1">
          <mxGeometry relative="1" as="geometry">
            <mxPoint x="820" y="440" as="sourcePoint" />
            <mxPoint x="980" y="440" as="targetPoint" />
          </mxGeometry>
        </mxCell>
        <mxCell id="6AYaxFPfaX3n9xTRVo3Z-94" value="" style="endArrow=none;html=1;rounded=0;exitX=1;exitY=1;exitDx=0;exitDy=0;entryX=0.5;entryY=0;entryDx=0;entryDy=0;" parent="1" source="fh_c4aW1x9fe1zc0Bb2D-122" target="6AYaxFPfaX3n9xTRVo3Z-91" edge="1">
          <mxGeometry relative="1" as="geometry">
            <mxPoint x="820" y="440" as="sourcePoint" />
            <mxPoint x="980" y="440" as="targetPoint" />
          </mxGeometry>
        </mxCell>
        <mxCell id="6AYaxFPfaX3n9xTRVo3Z-95" value="" style="endArrow=none;html=1;rounded=0;exitX=1;exitY=0.25;exitDx=0;exitDy=0;entryX=0;entryY=0.5;entryDx=0;entryDy=0;" parent="1" source="fh_c4aW1x9fe1zc0Bb2D-122" target="6AYaxFPfaX3n9xTRVo3Z-88" edge="1">
          <mxGeometry relative="1" as="geometry">
            <mxPoint x="820" y="440" as="sourcePoint" />
            <mxPoint x="980" y="440" as="targetPoint" />
          </mxGeometry>
        </mxCell>
        <mxCell id="6AYaxFPfaX3n9xTRVo3Z-96" value="" style="endArrow=none;html=1;rounded=0;exitX=1;exitY=0;exitDx=0;exitDy=0;entryX=0;entryY=1;entryDx=0;entryDy=0;" parent="1" source="fh_c4aW1x9fe1zc0Bb2D-122" target="6AYaxFPfaX3n9xTRVo3Z-87" edge="1">
          <mxGeometry relative="1" as="geometry">
            <mxPoint x="820" y="440" as="sourcePoint" />
            <mxPoint x="980" y="440" as="targetPoint" />
          </mxGeometry>
        </mxCell>
        <mxCell id="6AYaxFPfaX3n9xTRVo3Z-100" value="studentID" style="ellipse;whiteSpace=wrap;html=1;fillColor=#dae8fc;strokeColor=#6c8ebf;" parent="1" vertex="1">
          <mxGeometry x="1407" y="901" width="90" height="40" as="geometry" />
        </mxCell>
        <mxCell id="6AYaxFPfaX3n9xTRVo3Z-101" value="currentClass" style="ellipse;whiteSpace=wrap;html=1;fillColor=#dae8fc;strokeColor=#6c8ebf;" parent="1" vertex="1">
          <mxGeometry x="1507" y="901" width="90" height="40" as="geometry" />
        </mxCell>
        <mxCell id="6AYaxFPfaX3n9xTRVo3Z-102" value="parent" style="ellipse;whiteSpace=wrap;html=1;fillColor=#dae8fc;strokeColor=#6c8ebf;" parent="1" vertex="1">
          <mxGeometry x="1607" y="901" width="90" height="40" as="geometry" />
        </mxCell>
        <mxCell id="6AYaxFPfaX3n9xTRVo3Z-103" value="" style="endArrow=none;html=1;rounded=0;entryX=0.5;entryY=0;entryDx=0;entryDy=0;exitX=1;exitY=0.75;exitDx=0;exitDy=0;" parent="1" source="fh_c4aW1x9fe1zc0Bb2D-121" target="6AYaxFPfaX3n9xTRVo3Z-31" edge="1">
          <mxGeometry relative="1" as="geometry">
            <mxPoint x="1090" y="670" as="sourcePoint" />
            <mxPoint x="1250" y="670" as="targetPoint" />
          </mxGeometry>
        </mxCell>
        <mxCell id="6AYaxFPfaX3n9xTRVo3Z-104" value="" style="endArrow=none;html=1;rounded=0;entryX=0.5;entryY=0;entryDx=0;entryDy=0;exitX=1;exitY=1;exitDx=0;exitDy=0;" parent="1" source="fh_c4aW1x9fe1zc0Bb2D-128" target="6AYaxFPfaX3n9xTRVo3Z-102" edge="1">
          <mxGeometry relative="1" as="geometry">
            <mxPoint x="1150" y="920" as="sourcePoint" />
            <mxPoint x="1310" y="920" as="targetPoint" />
          </mxGeometry>
        </mxCell>
        <mxCell id="6AYaxFPfaX3n9xTRVo3Z-105" value="" style="endArrow=none;html=1;rounded=0;entryX=0;entryY=1;entryDx=0;entryDy=0;exitX=0.5;exitY=0;exitDx=0;exitDy=0;" parent="1" source="fh_c4aW1x9fe1zc0Bb2D-270" target="fh_c4aW1x9fe1zc0Bb2D-128" edge="1">
          <mxGeometry relative="1" as="geometry">
            <mxPoint x="1150" y="920" as="sourcePoint" />
            <mxPoint x="1310" y="920" as="targetPoint" />
          </mxGeometry>
        </mxCell>
        <mxCell id="6AYaxFPfaX3n9xTRVo3Z-106" value="" style="endArrow=none;html=1;rounded=0;entryX=0;entryY=1;entryDx=0;entryDy=0;exitX=0.5;exitY=0;exitDx=0;exitDy=0;" parent="1" source="fh_c4aW1x9fe1zc0Bb2D-271" target="fh_c4aW1x9fe1zc0Bb2D-128" edge="1">
          <mxGeometry relative="1" as="geometry">
            <mxPoint x="1150" y="920" as="sourcePoint" />
            <mxPoint x="1310" y="920" as="targetPoint" />
          </mxGeometry>
        </mxCell>
        <mxCell id="6AYaxFPfaX3n9xTRVo3Z-107" value="" style="endArrow=none;html=1;rounded=0;entryX=0.5;entryY=0;entryDx=0;entryDy=0;exitX=1;exitY=1;exitDx=0;exitDy=0;" parent="1" source="fh_c4aW1x9fe1zc0Bb2D-128" target="6AYaxFPfaX3n9xTRVo3Z-101" edge="1">
          <mxGeometry relative="1" as="geometry">
            <mxPoint x="1150" y="920" as="sourcePoint" />
            <mxPoint x="1310" y="920" as="targetPoint" />
          </mxGeometry>
        </mxCell>
        <mxCell id="6AYaxFPfaX3n9xTRVo3Z-108" value="" style="endArrow=none;html=1;rounded=0;entryX=0.25;entryY=1;entryDx=0;entryDy=0;exitX=0.5;exitY=0;exitDx=0;exitDy=0;" parent="1" source="fh_c4aW1x9fe1zc0Bb2D-272" target="fh_c4aW1x9fe1zc0Bb2D-128" edge="1">
          <mxGeometry relative="1" as="geometry">
            <mxPoint x="1150" y="920" as="sourcePoint" />
            <mxPoint x="1310" y="920" as="targetPoint" />
          </mxGeometry>
        </mxCell>
        <mxCell id="6AYaxFPfaX3n9xTRVo3Z-109" value="" style="endArrow=none;html=1;rounded=0;entryX=0.75;entryY=1;entryDx=0;entryDy=0;exitX=0.5;exitY=0;exitDx=0;exitDy=0;" parent="1" source="6AYaxFPfaX3n9xTRVo3Z-100" target="fh_c4aW1x9fe1zc0Bb2D-128" edge="1">
          <mxGeometry relative="1" as="geometry">
            <mxPoint x="1150" y="920" as="sourcePoint" />
            <mxPoint x="1310" y="920" as="targetPoint" />
          </mxGeometry>
        </mxCell>
        <mxCell id="6AYaxFPfaX3n9xTRVo3Z-110" value="" style="endArrow=none;html=1;rounded=0;entryX=0.5;entryY=1;entryDx=0;entryDy=0;exitX=0.5;exitY=0;exitDx=0;exitDy=0;" parent="1" source="fh_c4aW1x9fe1zc0Bb2D-273" target="fh_c4aW1x9fe1zc0Bb2D-128" edge="1">
          <mxGeometry relative="1" as="geometry">
            <mxPoint x="1150" y="920" as="sourcePoint" />
            <mxPoint x="1310" y="920" as="targetPoint" />
          </mxGeometry>
        </mxCell>
        <mxCell id="6AYaxFPfaX3n9xTRVo3Z-111" value="" style="endArrow=none;html=1;rounded=0;entryX=0.5;entryY=1;entryDx=0;entryDy=0;exitX=0.5;exitY=0;exitDx=0;exitDy=0;" parent="1" source="fh_c4aW1x9fe1zc0Bb2D-276" target="fh_c4aW1x9fe1zc0Bb2D-128" edge="1">
          <mxGeometry relative="1" as="geometry">
            <mxPoint x="1150" y="920" as="sourcePoint" />
            <mxPoint x="1310" y="920" as="targetPoint" />
          </mxGeometry>
        </mxCell>
        <mxCell id="6AYaxFPfaX3n9xTRVo3Z-112" value="" style="endArrow=none;html=1;rounded=0;entryX=0.5;entryY=1;entryDx=0;entryDy=0;exitX=0.5;exitY=0;exitDx=0;exitDy=0;" parent="1" source="fh_c4aW1x9fe1zc0Bb2D-274" target="fh_c4aW1x9fe1zc0Bb2D-128" edge="1">
          <mxGeometry relative="1" as="geometry">
            <mxPoint x="1150" y="920" as="sourcePoint" />
            <mxPoint x="1210" y="960" as="targetPoint" />
          </mxGeometry>
        </mxCell>
        <mxCell id="6AYaxFPfaX3n9xTRVo3Z-113" value="" style="endArrow=none;html=1;rounded=0;entryX=0.5;entryY=0;entryDx=0;entryDy=0;exitX=0.5;exitY=1;exitDx=0;exitDy=0;" parent="1" source="fh_c4aW1x9fe1zc0Bb2D-128" target="fh_c4aW1x9fe1zc0Bb2D-275" edge="1">
          <mxGeometry relative="1" as="geometry">
            <mxPoint x="1200" y="860" as="sourcePoint" />
            <mxPoint x="1310" y="920" as="targetPoint" />
          </mxGeometry>
        </mxCell>
        <mxCell id="6AYaxFPfaX3n9xTRVo3Z-115" value="teacher" style="ellipse;whiteSpace=wrap;html=1;fillColor=#dae8fc;strokeColor=#6c8ebf;" parent="1" vertex="1">
          <mxGeometry x="1540" y="158.5" width="90" height="40" as="geometry" />
        </mxCell>
        <mxCell id="6AYaxFPfaX3n9xTRVo3Z-116" value="" style="endArrow=none;html=1;rounded=0;entryX=0;entryY=0.5;entryDx=0;entryDy=0;exitX=1;exitY=0.5;exitDx=0;exitDy=0;" parent="1" source="fh_c4aW1x9fe1zc0Bb2D-125" target="6AYaxFPfaX3n9xTRVo3Z-115" edge="1">
          <mxGeometry relative="1" as="geometry">
            <mxPoint x="1170" y="220" as="sourcePoint" />
            <mxPoint x="1330" y="220" as="targetPoint" />
          </mxGeometry>
        </mxCell>
        <mxCell id="71zBtfRFNZR_LlJThT-r-1" value="role" style="ellipse;whiteSpace=wrap;html=1;fillColor=#dae8fc;strokeColor=#6c8ebf;" parent="1" vertex="1">
          <mxGeometry x="153" y="942" width="90" height="40" as="geometry" />
        </mxCell>
        <mxCell id="71zBtfRFNZR_LlJThT-r-2" value="classHomeroom" style="ellipse;whiteSpace=wrap;html=1;fillColor=#dae8fc;strokeColor=#6c8ebf;" parent="1" vertex="1">
          <mxGeometry x="153" y="436" width="90" height="40" as="geometry" />
        </mxCell>
        <mxCell id="71zBtfRFNZR_LlJThT-r-3" value="" style="endArrow=none;html=1;rounded=0;entryX=1;entryY=0.5;entryDx=0;entryDy=0;exitX=0;exitY=0.75;exitDx=0;exitDy=0;" parent="1" source="fh_c4aW1x9fe1zc0Bb2D-123" target="fh_c4aW1x9fe1zc0Bb2D-212" edge="1">
          <mxGeometry relative="1" as="geometry">
            <mxPoint x="290" y="260" as="sourcePoint" />
            <mxPoint x="450" y="260" as="targetPoint" />
          </mxGeometry>
        </mxCell>
        <mxCell id="71zBtfRFNZR_LlJThT-r-4" value="" style="endArrow=none;html=1;rounded=0;entryX=1;entryY=0.5;entryDx=0;entryDy=0;exitX=0;exitY=0.75;exitDx=0;exitDy=0;" parent="1" source="fh_c4aW1x9fe1zc0Bb2D-123" target="6AYaxFPfaX3n9xTRVo3Z-72" edge="1">
          <mxGeometry relative="1" as="geometry">
            <mxPoint x="290" y="260" as="sourcePoint" />
            <mxPoint x="450" y="260" as="targetPoint" />
          </mxGeometry>
        </mxCell>
        <mxCell id="71zBtfRFNZR_LlJThT-r-5" value="" style="endArrow=none;html=1;rounded=0;entryX=1;entryY=0.5;entryDx=0;entryDy=0;exitX=0;exitY=1;exitDx=0;exitDy=0;" parent="1" source="fh_c4aW1x9fe1zc0Bb2D-123" target="6AYaxFPfaX3n9xTRVo3Z-71" edge="1">
          <mxGeometry relative="1" as="geometry">
            <mxPoint x="290" y="260" as="sourcePoint" />
            <mxPoint x="450" y="260" as="targetPoint" />
          </mxGeometry>
        </mxCell>
        <mxCell id="71zBtfRFNZR_LlJThT-r-6" value="" style="endArrow=none;html=1;rounded=0;exitX=1;exitY=0.5;exitDx=0;exitDy=0;entryX=0;entryY=1;entryDx=0;entryDy=0;" parent="1" source="71zBtfRFNZR_LlJThT-r-2" target="fh_c4aW1x9fe1zc0Bb2D-123" edge="1">
          <mxGeometry relative="1" as="geometry">
            <mxPoint x="290" y="260" as="sourcePoint" />
            <mxPoint x="450" y="260" as="targetPoint" />
          </mxGeometry>
        </mxCell>
        <mxCell id="71zBtfRFNZR_LlJThT-r-7" value="" style="endArrow=none;html=1;rounded=0;exitX=1;exitY=0.5;exitDx=0;exitDy=0;entryX=0;entryY=0.5;entryDx=0;entryDy=0;" parent="1" source="fh_c4aW1x9fe1zc0Bb2D-214" target="fh_c4aW1x9fe1zc0Bb2D-123" edge="1">
          <mxGeometry relative="1" as="geometry">
            <mxPoint x="290" y="260" as="sourcePoint" />
            <mxPoint x="450" y="260" as="targetPoint" />
          </mxGeometry>
        </mxCell>
        <mxCell id="71zBtfRFNZR_LlJThT-r-8" value="" style="endArrow=none;html=1;rounded=0;exitX=1;exitY=0.5;exitDx=0;exitDy=0;entryX=0;entryY=0.5;entryDx=0;entryDy=0;" parent="1" source="fh_c4aW1x9fe1zc0Bb2D-213" target="fh_c4aW1x9fe1zc0Bb2D-123" edge="1">
          <mxGeometry relative="1" as="geometry">
            <mxPoint x="290" y="260" as="sourcePoint" />
            <mxPoint x="450" y="260" as="targetPoint" />
          </mxGeometry>
        </mxCell>
        <mxCell id="71zBtfRFNZR_LlJThT-r-9" value="" style="endArrow=none;html=1;rounded=0;exitX=1;exitY=0.5;exitDx=0;exitDy=0;entryX=0;entryY=0.25;entryDx=0;entryDy=0;" parent="1" source="fh_c4aW1x9fe1zc0Bb2D-211" target="fh_c4aW1x9fe1zc0Bb2D-123" edge="1">
          <mxGeometry relative="1" as="geometry">
            <mxPoint x="290" y="260" as="sourcePoint" />
            <mxPoint x="450" y="260" as="targetPoint" />
          </mxGeometry>
        </mxCell>
        <mxCell id="71zBtfRFNZR_LlJThT-r-10" value="" style="endArrow=none;html=1;rounded=0;exitX=1;exitY=0.5;exitDx=0;exitDy=0;entryX=0;entryY=0.25;entryDx=0;entryDy=0;" parent="1" source="fh_c4aW1x9fe1zc0Bb2D-210" target="fh_c4aW1x9fe1zc0Bb2D-123" edge="1">
          <mxGeometry relative="1" as="geometry">
            <mxPoint x="290" y="260" as="sourcePoint" />
            <mxPoint x="450" y="260" as="targetPoint" />
          </mxGeometry>
        </mxCell>
        <mxCell id="71zBtfRFNZR_LlJThT-r-11" value="" style="endArrow=none;html=1;rounded=0;exitX=1;exitY=0.5;exitDx=0;exitDy=0;entryX=0;entryY=0;entryDx=0;entryDy=0;" parent="1" source="fh_c4aW1x9fe1zc0Bb2D-209" target="fh_c4aW1x9fe1zc0Bb2D-123" edge="1">
          <mxGeometry relative="1" as="geometry">
            <mxPoint x="290" y="260" as="sourcePoint" />
            <mxPoint x="450" y="260" as="targetPoint" />
          </mxGeometry>
        </mxCell>
        <mxCell id="71zBtfRFNZR_LlJThT-r-12" value="" style="endArrow=none;html=1;rounded=0;exitX=1;exitY=0.5;exitDx=0;exitDy=0;entryX=0;entryY=0;entryDx=0;entryDy=0;" parent="1" source="fh_c4aW1x9fe1zc0Bb2D-208" target="fh_c4aW1x9fe1zc0Bb2D-123" edge="1">
          <mxGeometry relative="1" as="geometry">
            <mxPoint x="290" y="260" as="sourcePoint" />
            <mxPoint x="450" y="260" as="targetPoint" />
          </mxGeometry>
        </mxCell>
        <mxCell id="71zBtfRFNZR_LlJThT-r-13" value="" style="endArrow=none;html=1;rounded=0;entryX=1;entryY=0.5;entryDx=0;entryDy=0;exitX=0;exitY=0.5;exitDx=0;exitDy=0;" parent="1" source="fh_c4aW1x9fe1zc0Bb2D-127" target="6AYaxFPfaX3n9xTRVo3Z-2" edge="1">
          <mxGeometry relative="1" as="geometry">
            <mxPoint x="290" y="700" as="sourcePoint" />
            <mxPoint x="450" y="700" as="targetPoint" />
          </mxGeometry>
        </mxCell>
        <mxCell id="71zBtfRFNZR_LlJThT-r-14" value="" style="endArrow=none;html=1;rounded=0;entryX=1;entryY=0.5;entryDx=0;entryDy=0;exitX=0;exitY=0.5;exitDx=0;exitDy=0;" parent="1" source="fh_c4aW1x9fe1zc0Bb2D-127" target="fh_c4aW1x9fe1zc0Bb2D-228" edge="1">
          <mxGeometry relative="1" as="geometry">
            <mxPoint x="290" y="700" as="sourcePoint" />
            <mxPoint x="450" y="700" as="targetPoint" />
          </mxGeometry>
        </mxCell>
        <mxCell id="71zBtfRFNZR_LlJThT-r-15" value="" style="endArrow=none;html=1;rounded=0;entryX=1;entryY=0.5;entryDx=0;entryDy=0;exitX=0;exitY=0.25;exitDx=0;exitDy=0;" parent="1" source="fh_c4aW1x9fe1zc0Bb2D-127" target="fh_c4aW1x9fe1zc0Bb2D-227" edge="1">
          <mxGeometry relative="1" as="geometry">
            <mxPoint x="290" y="700" as="sourcePoint" />
            <mxPoint x="450" y="700" as="targetPoint" />
          </mxGeometry>
        </mxCell>
        <mxCell id="71zBtfRFNZR_LlJThT-r-16" value="" style="endArrow=none;html=1;rounded=0;entryX=1;entryY=0.5;entryDx=0;entryDy=0;exitX=0;exitY=0.25;exitDx=0;exitDy=0;" parent="1" source="fh_c4aW1x9fe1zc0Bb2D-127" target="fh_c4aW1x9fe1zc0Bb2D-226" edge="1">
          <mxGeometry relative="1" as="geometry">
            <mxPoint x="290" y="700" as="sourcePoint" />
            <mxPoint x="450" y="700" as="targetPoint" />
          </mxGeometry>
        </mxCell>
        <mxCell id="71zBtfRFNZR_LlJThT-r-17" value="" style="endArrow=none;html=1;rounded=0;entryX=1;entryY=0.5;entryDx=0;entryDy=0;exitX=0;exitY=0.75;exitDx=0;exitDy=0;" parent="1" source="fh_c4aW1x9fe1zc0Bb2D-127" target="6AYaxFPfaX3n9xTRVo3Z-3" edge="1">
          <mxGeometry relative="1" as="geometry">
            <mxPoint x="290" y="700" as="sourcePoint" />
            <mxPoint x="450" y="700" as="targetPoint" />
          </mxGeometry>
        </mxCell>
        <mxCell id="71zBtfRFNZR_LlJThT-r-18" value="" style="endArrow=none;html=1;rounded=0;entryX=1;entryY=0.5;entryDx=0;entryDy=0;exitX=0;exitY=0.75;exitDx=0;exitDy=0;" parent="1" source="fh_c4aW1x9fe1zc0Bb2D-127" target="6AYaxFPfaX3n9xTRVo3Z-4" edge="1">
          <mxGeometry relative="1" as="geometry">
            <mxPoint x="290" y="700" as="sourcePoint" />
            <mxPoint x="450" y="700" as="targetPoint" />
          </mxGeometry>
        </mxCell>
        <mxCell id="71zBtfRFNZR_LlJThT-r-19" value="" style="endArrow=none;html=1;rounded=0;entryX=1;entryY=0.5;entryDx=0;entryDy=0;exitX=0;exitY=1;exitDx=0;exitDy=0;" parent="1" source="fh_c4aW1x9fe1zc0Bb2D-127" target="6AYaxFPfaX3n9xTRVo3Z-5" edge="1">
          <mxGeometry relative="1" as="geometry">
            <mxPoint x="290" y="700" as="sourcePoint" />
            <mxPoint x="450" y="700" as="targetPoint" />
          </mxGeometry>
        </mxCell>
        <mxCell id="71zBtfRFNZR_LlJThT-r-20" value="" style="endArrow=none;html=1;rounded=0;entryX=1;entryY=0.5;entryDx=0;entryDy=0;exitX=0;exitY=1;exitDx=0;exitDy=0;" parent="1" source="fh_c4aW1x9fe1zc0Bb2D-127" target="71zBtfRFNZR_LlJThT-r-1" edge="1">
          <mxGeometry relative="1" as="geometry">
            <mxPoint x="290" y="700" as="sourcePoint" />
            <mxPoint x="450" y="700" as="targetPoint" />
          </mxGeometry>
        </mxCell>
        <mxCell id="71zBtfRFNZR_LlJThT-r-21" value="" style="endArrow=none;html=1;rounded=0;entryX=1;entryY=0.5;entryDx=0;entryDy=0;exitX=0;exitY=0;exitDx=0;exitDy=0;" parent="1" source="fh_c4aW1x9fe1zc0Bb2D-127" target="fh_c4aW1x9fe1zc0Bb2D-225" edge="1">
          <mxGeometry relative="1" as="geometry">
            <mxPoint x="290" y="700" as="sourcePoint" />
            <mxPoint x="450" y="700" as="targetPoint" />
          </mxGeometry>
        </mxCell>
        <mxCell id="71zBtfRFNZR_LlJThT-r-22" value="" style="endArrow=none;html=1;rounded=0;exitX=1;exitY=0.5;exitDx=0;exitDy=0;entryX=0;entryY=0;entryDx=0;entryDy=0;" parent="1" source="fh_c4aW1x9fe1zc0Bb2D-224" target="fh_c4aW1x9fe1zc0Bb2D-127" edge="1">
          <mxGeometry relative="1" as="geometry">
            <mxPoint x="290" y="700" as="sourcePoint" />
            <mxPoint x="450" y="700" as="targetPoint" />
          </mxGeometry>
        </mxCell>
      </root>
    </mxGraphModel>
  </diagram>
</mxfile>
